<?xml version="1.0" encoding="UTF-8"?>
<!DOCTYPE svg PUBLIC "-//W3C//DTD SVG 1.1//EN" "http://www.w3.org/Graphics/SVG/1.1/DTD/svg11.dtd">
<!-- Creator: CorelDRAW X7 -->
<svg xmlns="http://www.w3.org/2000/svg" xml:space="preserve" width="4.3032mm" height="4.6597mm" version="1.1" style="shape-rendering:geometricPrecision; text-rendering:geometricPrecision; image-rendering:optimizeQuality; fill-rule:evenodd; clip-rule:evenodd"
viewBox="0 0 648 701"
 xmlns:xlink="http://www.w3.org/1999/xlink">
 <defs>
  <style type="text/css">
   <![CDATA[
    .str0 {stroke:#2B2A29;stroke-width:45.1574}
    .fil0 {fill:none}
   ]]>
  </style>
 </defs>
 <g id="Warstwa_x0020_1">
  <metadata id="CorelCorpID_0Corel-Layer"/>
  <path class="fil0 str0" d="M140 269c-40,0 -60,0 -60,0 -36,273 -54,410 -54,410 397,-2 596,-3 596,-3 -36,-254 -50,-411 -50,-411 -34,1 -56,1 -56,1"/>
  <path class="fil0 str0" d="M248 266c65,0 160,0 160,0"/>
  <path class="fil0 str0" d="M234 357c-51,-121 -76,-182 -76,-182 111,-99 173,-147 173,-147 119,87 178,152 178,152 -61,119 -93,182 -93,182"/>
 </g>
</svg>
