<?xml version="1.0" encoding="UTF-8"?>
<!DOCTYPE svg PUBLIC "-//W3C//DTD SVG 1.1//EN" "http://www.w3.org/Graphics/SVG/1.1/DTD/svg11.dtd">
<!-- Creator: CorelDRAW X7 -->
<svg xmlns="http://www.w3.org/2000/svg" xml:space="preserve" width="77.5232mm" height="12.0684mm" version="1.1" style="shape-rendering:geometricPrecision; text-rendering:geometricPrecision; image-rendering:optimizeQuality; fill-rule:evenodd; clip-rule:evenodd"
viewBox="0 0 3250 506"
 xmlns:xlink="http://www.w3.org/1999/xlink">
 <defs>
  <style type="text/css">
   <![CDATA[
    .fil0 {fill:#2B2A29;fill-rule:nonzero}
   ]]>
  </style>
 </defs>
 <g id="Warstwa_x0020_1">
  <metadata id="CorelCorpID_0Corel-Layer"/>
  <g id="_2588546933456">
   <path class="fil0" d="M193 395c-7,1 -14,2 -22,3 -7,1 -14,1 -22,1 -21,0 -40,-3 -58,-8 -18,-6 -34,-15 -47,-27 -14,-12 -24,-27 -32,-44 -8,-18 -12,-39 -12,-63 0,-26 5,-52 15,-78 10,-26 24,-50 42,-70 18,-21 39,-37 64,-50 24,-13 50,-20 78,-20 15,0 28,2 37,5 9,3 16,7 23,12 7,6 13,12 18,18 6,7 13,14 21,21 0,1 -2,2 -4,4 -3,2 -6,4 -10,6 -4,2 -8,4 -12,6 -5,2 -9,3 -13,3 -3,0 -7,-2 -13,-6 -6,-5 -14,-11 -23,-18 -8,-7 -22,-11 -39,-11 -24,0 -46,5 -66,15 -19,10 -37,23 -51,39 -14,17 -25,36 -33,57 -8,21 -12,43 -12,65 0,38 11,67 34,86 22,18 53,28 92,28 22,0 41,-5 59,-14 18,-9 35,-21 49,-36 14,-16 28,-32 40,-51 12,-19 23,-38 34,-57 -25,1 -46,2 -65,2 -19,0 -33,0 -41,0 -6,-1 -12,-2 -17,-3 -4,0 -8,-2 -11,-5 -3,-2 -5,-7 -7,-12 -2,-6 -2,-14 -2,-24l0 -8c0,-1 0,-2 0,-3 6,2 14,4 26,6 11,2 25,3 40,5 15,1 31,3 47,4 17,1 34,2 50,4 15,-29 32,-55 51,-78 18,-22 36,-40 54,-55 18,-15 36,-26 53,-33 16,-7 31,-11 43,-11 8,0 14,1 18,3 4,2 6,11 6,27 0,1 0,4 0,8 0,4 -1,6 -1,7 -12,17 -25,39 -40,63 -15,25 -29,52 -42,80 13,1 24,2 32,2 8,1 14,1 18,2 4,0 7,1 8,2 1,0 2,1 2,2 0,4 -6,6 -18,6 -12,1 -28,2 -49,3 -7,17 -15,36 -22,55 -6,20 -10,37 -10,52 0,12 3,22 10,30 6,9 17,14 33,15 11,0 21,-1 31,-4 10,-3 18,-7 25,-11 7,-5 13,-9 17,-13 4,-3 7,-5 7,-5 1,0 3,0 4,1 1,2 1,3 1,4l0 -1c1,0 -1,3 -5,8 -4,5 -10,11 -18,17 -9,7 -19,12 -30,17 -12,5 -25,8 -39,8 -6,0 -13,-2 -20,-5 -8,-3 -15,-7 -21,-12 -7,-5 -12,-11 -16,-19 -5,-7 -7,-15 -7,-23 0,-21 2,-41 5,-59 4,-18 8,-36 13,-53 -21,1 -44,2 -67,2 -10,16 -21,34 -32,53 -11,19 -24,38 -39,55 -15,18 -31,34 -50,48 -18,14 -39,24 -62,30zm303 -325c-19,12 -36,27 -53,47 -16,19 -32,40 -48,64 10,1 19,1 29,2 9,0 18,1 26,2 7,-22 15,-43 23,-63 7,-19 15,-37 23,-52zm285 93c0,1 0,2 1,3 0,1 0,2 0,3 0,2 0,3 0,3 1,1 1,1 1,1 0,0 0,1 -1,2 -1,1 -1,4 -3,7l-1 0c-13,30 -28,62 -45,97 -16,36 -30,71 -42,107 11,1 22,2 34,3 11,1 22,3 31,6 9,4 17,8 22,14 6,6 9,14 9,24 0,8 -2,15 -5,23 -4,7 -9,14 -15,20 -6,5 -13,10 -21,14 -8,4 -16,6 -24,6 -15,0 -29,-6 -42,-18 -14,-11 -22,-26 -25,-45 -10,1 -22,3 -36,5 -14,2 -27,4 -40,6 -13,3 -24,5 -32,8 -9,3 -13,6 -13,8 -3,-12 -4,-22 -2,-30 2,-8 6,-15 10,-20 4,-6 8,-9 13,-12 4,-2 8,-3 10,-4 14,-2 28,-4 43,-5 15,-1 32,-2 51,-3 0,-3 1,-5 1,-7 1,-2 2,-5 2,-8 -5,3 -11,6 -16,7 -6,2 -13,3 -22,4 -14,0 -25,-2 -34,-9 -9,-6 -15,-14 -20,-23 -5,-9 -9,-18 -11,-28 -2,-10 -3,-18 -4,-25 0,-16 2,-32 8,-50 6,-18 14,-34 25,-49 11,-14 25,-27 40,-37 15,-9 32,-15 51,-16 11,-1 21,0 29,3 8,3 16,5 22,8 3,-4 6,-9 8,-14 3,-4 4,-9 5,-14 6,3 12,7 17,10 5,3 9,6 13,10 4,4 7,9 8,13l0 2zm-55 261c-7,0 -13,1 -20,1 -7,1 -13,2 -19,3l0 0 -1 0c-2,0 -2,0 -3,0 -1,1 -1,1 -3,1l-13 2c1,1 3,1 6,1 1,1 3,1 4,1 2,0 3,0 4,1 3,12 9,22 17,30 9,9 18,13 29,13 8,0 16,-3 26,-9 9,-7 14,-16 14,-30 0,-4 -2,-8 -5,-11 -4,-3 -11,-4 -21,-4 -2,0 -5,0 -7,0 -3,0 -6,0 -8,1zm-59 -77c7,-26 14,-51 22,-74 8,-24 15,-45 22,-64 -11,-9 -24,-13 -38,-12 -11,1 -21,4 -32,10 -10,7 -19,15 -28,26 -8,10 -15,22 -20,35 -5,13 -7,26 -6,38 0,7 0,13 2,20 1,7 4,13 7,18 4,6 8,10 15,13 6,3 14,5 23,4 7,-1 14,-2 22,-5 8,-3 11,-6 11,-9zm351 -66c-1,2 -3,8 -6,19 -4,11 -10,22 -17,33 -6,12 -15,22 -25,32 -10,9 -21,14 -34,14 -7,0 -14,-2 -21,-6 -6,-5 -13,-14 -19,-28 -3,3 -5,7 -9,11 -3,4 -7,8 -12,11 -5,4 -11,6 -18,9 -6,2 -15,3 -25,3 -13,0 -24,-3 -32,-9 -9,-7 -15,-14 -20,-23 -4,-9 -8,-19 -9,-29 -2,-10 -3,-19 -3,-26 0,-14 3,-30 9,-47 6,-17 15,-33 26,-48 11,-14 24,-27 40,-36 15,-10 33,-15 52,-15 11,0 20,1 26,4 6,3 12,6 18,10 2,-4 3,-7 5,-11 1,-3 2,-6 3,-8 0,0 3,1 7,4 4,2 8,6 13,10 5,4 10,9 14,14 4,5 6,10 6,15 0,3 -1,7 -2,11 -1,5 -4,10 -9,17 -10,18 -20,38 -30,60 -10,21 -15,41 -15,59 0,7 1,12 2,16 2,4 5,6 10,6 8,0 18,-6 30,-18 13,-11 25,-31 36,-57 0,0 1,-1 2,-1 4,0 6,1 6,2 1,2 1,3 1,2zm-126 51c0,-3 -1,-6 -1,-8 0,-3 0,-5 0,-8 0,-17 3,-35 8,-53 5,-19 10,-36 17,-52 -5,-5 -9,-8 -13,-11 -3,-2 -8,-3 -15,-3 -11,0 -21,3 -31,10 -11,6 -20,14 -29,24 -9,10 -16,22 -21,34 -6,13 -9,25 -9,38 0,6 1,13 2,19 1,6 3,12 5,18 3,6 8,11 13,14 6,4 14,5 24,5 14,0 25,-3 32,-11 8,-7 14,-12 18,-16zm320 -46c0,1 1,2 1,2 0,1 0,1 1,2 0,0 0,1 0,2 0,0 -1,1 -2,2 -2,1 -6,2 -12,2 -4,0 -10,0 -15,-1 -6,-1 -12,-3 -19,-6 -2,9 -7,18 -13,29 -5,10 -12,20 -20,29 -8,9 -17,17 -26,24 -10,6 -21,9 -33,9 -12,0 -23,-2 -31,-6 -9,-5 -16,-10 -21,-17 -6,-7 -10,-15 -13,-25 -3,-10 -5,-20 -6,-30 0,-16 2,-32 5,-46 3,-14 6,-28 10,-40 5,-12 9,-23 13,-32 5,-9 9,-16 12,-21 4,-6 8,-14 12,-22 4,-8 7,-16 9,-22 1,0 3,1 7,4 4,2 8,6 13,10 5,4 9,8 13,13 3,5 5,10 5,15 0,1 0,3 0,7 -1,4 -2,9 -5,15 -4,9 -9,18 -15,28 -6,10 -11,20 -17,30 -5,11 -10,22 -14,33 -3,12 -5,24 -5,36 0,10 2,19 5,25 4,7 11,10 21,10 9,0 17,-2 24,-7 8,-4 15,-10 21,-17 6,-7 12,-14 17,-22 5,-9 9,-16 13,-23 -6,-6 -11,-14 -15,-24 -4,-9 -5,-20 -5,-32 0,-10 1,-20 4,-30 3,-10 8,-18 12,-26 5,-7 11,-13 16,-17 6,-5 12,-7 17,-7 5,0 9,2 12,6 3,5 4,13 4,27 0,18 -2,36 -6,53 -4,16 -10,34 -16,53 5,2 11,5 16,6 6,2 11,2 16,2 3,0 5,0 7,0 2,0 3,-1 3,-1zm-59 -21c6,-12 11,-24 15,-36 5,-12 7,-25 7,-39 0,-12 -2,-17 -7,-17 -3,0 -6,2 -9,7 -3,4 -6,10 -8,16 -2,6 -4,12 -5,19 -2,6 -2,12 -2,15 0,6 1,12 2,17 2,6 5,11 7,18zm262 21c0,1 0,2 1,2 0,1 0,1 0,2 0,0 0,1 0,2 0,0 0,1 -2,2 -2,1 -6,2 -11,2 -5,0 -10,0 -16,-1 -6,-1 -12,-3 -18,-6 -3,9 -8,18 -13,29 -6,10 -13,20 -21,29 -8,9 -16,17 -26,24 -10,6 -21,9 -32,9 -13,0 -24,-2 -32,-6 -8,-5 -15,-10 -21,-17 -5,-7 -10,-15 -12,-25 -3,-10 -5,-20 -7,-30 0,-16 2,-32 5,-46 3,-14 6,-28 11,-40 4,-12 8,-23 13,-32 4,-9 8,-16 11,-21 4,-6 8,-14 12,-22 4,-8 7,-16 9,-22 1,0 3,1 7,4 4,2 9,6 13,10 5,4 9,8 13,13 4,5 5,10 5,15 0,1 0,3 0,7 0,4 -2,9 -5,15 -4,9 -9,18 -15,28 -5,10 -11,20 -16,30 -6,11 -11,22 -14,33 -4,12 -6,24 -6,36 0,10 2,19 6,25 3,7 10,10 20,10 9,0 17,-2 24,-7 8,-4 15,-10 21,-17 7,-7 12,-14 17,-22 5,-9 10,-16 14,-23 -7,-6 -12,-14 -16,-24 -3,-9 -5,-20 -5,-32 0,-10 1,-20 5,-30 3,-10 7,-18 12,-26 5,-7 10,-13 16,-17 6,-5 11,-7 16,-7 5,0 9,2 12,6 3,5 5,13 5,27 0,18 -2,36 -7,53 -4,16 -10,34 -16,53 5,2 11,5 17,6 5,2 11,2 15,2 3,0 5,0 7,0 2,0 3,-1 4,-1zm-59 -21c5,-12 10,-24 14,-36 5,-12 7,-25 7,-39 0,-12 -2,-17 -7,-17 -3,0 -6,2 -9,7 -3,4 -6,10 -8,16 -2,6 -4,12 -5,19 -1,6 -2,12 -2,15 0,6 1,12 3,17 1,6 4,11 7,18zm292 16c0,2 -3,8 -6,19 -4,11 -10,22 -16,33 -7,12 -16,22 -26,32 -9,9 -21,14 -33,14 -8,0 -15,-2 -22,-6 -6,-5 -13,-14 -19,-28 -3,3 -5,7 -9,11 -3,4 -7,8 -12,11 -5,4 -11,6 -17,9 -7,2 -16,3 -26,3 -13,0 -24,-3 -32,-9 -9,-7 -15,-14 -20,-23 -4,-9 -7,-19 -9,-29 -2,-10 -3,-19 -3,-26 0,-14 3,-30 9,-47 6,-17 15,-33 26,-48 11,-14 24,-27 40,-36 15,-10 33,-15 52,-15 11,0 20,1 26,4 6,3 12,6 18,10 2,-4 3,-7 5,-11 1,-3 2,-6 3,-8 1,0 3,1 7,4 4,2 8,6 13,10 5,4 10,9 14,14 4,5 6,10 6,15 0,3 -1,7 -2,11 -1,5 -4,10 -9,17 -10,18 -20,38 -30,60 -10,21 -15,41 -15,59 0,7 1,12 2,16 2,4 5,6 10,6 8,0 18,-6 30,-18 13,-11 25,-31 36,-57 0,0 1,-1 2,-1 4,0 6,1 6,2 1,2 1,3 1,2zm-126 51c0,-3 -1,-6 -1,-8 0,-3 0,-5 0,-8 0,-17 3,-35 8,-53 5,-19 10,-36 17,-52 -5,-5 -9,-8 -12,-11 -4,-2 -9,-3 -16,-3 -10,0 -21,3 -31,10 -11,6 -20,14 -29,24 -9,10 -16,22 -21,34 -6,13 -8,25 -8,38 0,6 0,13 1,19 1,6 3,12 5,18 3,6 8,11 14,14 5,4 13,5 23,5 14,0 25,-3 32,-11 8,-7 14,-12 18,-16zm296 82c-13,-5 -24,-11 -33,-20 -8,-8 -15,-17 -20,-28 -5,-10 -9,-21 -11,-32 -2,-12 -3,-23 -3,-34 0,-40 9,-79 25,-115 17,-36 37,-67 63,-94 25,-27 53,-48 83,-64 31,-16 60,-24 88,-24 19,0 35,2 48,5 12,3 23,7 30,12 8,5 13,10 17,15 3,6 5,11 6,16 0,2 -1,3 -2,5l-3 -1 3 1c-12,20 -21,37 -27,52 -6,15 -11,27 -13,37 -2,10 -4,18 -4,24 -1,6 -2,10 -4,12l-2 0c-13,-1 -23,-4 -31,-9 -7,-5 -13,-10 -16,-16 -4,-6 -7,-14 -8,-22 0,-5 2,-14 6,-26 4,-12 11,-28 21,-46 -7,-1 -15,-2 -23,-2 -23,0 -47,7 -73,21 -26,14 -50,32 -71,55 -22,23 -40,50 -54,79 -14,30 -21,60 -21,91 0,30 6,52 18,65 12,14 30,21 53,21 19,0 37,-4 53,-13 17,-8 31,-19 44,-31 12,-11 23,-24 31,-36 9,-12 16,-22 20,-30 -9,-1 -20,-3 -32,-6 -12,-3 -26,-8 -41,-15 -10,-5 -18,-8 -25,-8 -8,1 -12,4 -12,10l0 1c0,2 -1,3 -2,5 -1,2 -2,3 -4,3 -7,-2 -11,-7 -12,-18 0,-8 4,-14 12,-20 9,-5 19,-7 30,-7 16,0 28,1 38,3 9,3 18,4 27,4 11,0 21,-1 30,-3 9,-2 16,-5 22,-8 6,-3 11,-5 15,-8 4,-2 8,-3 10,-3 0,0 1,0 2,1l0 0c3,11 5,19 5,25 0,7 -1,13 -3,17 -2,5 -4,9 -7,11 -3,4 -6,7 -9,8 -3,1 -6,3 -10,4 -5,2 -10,3 -17,3 -4,10 -11,23 -20,38 -9,16 -21,31 -35,46 -14,15 -30,28 -49,39 -19,11 -41,16 -65,16 -13,0 -26,-2 -38,-6z"/>
   <path class="fil0" d="M2274 278c3,1 4,3 4,3 0,1 -2,7 -5,18 -4,10 -10,21 -17,33 -7,12 -16,23 -26,33 -10,9 -22,14 -34,14 -11,0 -22,-5 -31,-16 -10,-10 -14,-26 -14,-47 0,-17 2,-34 7,-52 5,-18 11,-35 17,-51 -6,2 -13,2 -19,3 -6,0 -12,0 -18,1 -3,0 -5,0 -7,0 -2,0 -4,0 -7,-1 -8,13 -16,26 -22,37 -7,12 -13,22 -17,30 -6,10 -11,19 -16,27 -1,0 -1,0 -2,-1 -1,-1 -2,-1 -2,-1l-2 -2c1,-1 2,-6 5,-13 3,-7 6,-15 10,-25 4,-10 8,-20 12,-31 5,-11 9,-21 12,-30 -10,-7 -16,-14 -20,-23 -3,-9 -5,-17 -5,-23 0,-7 0,-12 2,-15 1,-3 4,-5 8,-5 3,0 6,1 11,1 5,1 10,2 15,3 6,1 10,2 15,4 5,1 8,3 9,4 -2,4 -3,6 -4,7 0,1 -1,2 -2,3 0,1 1,2 4,3 2,0 5,1 9,2 4,0 8,1 13,1 4,0 9,0 13,0l24 0c-1,1 0,0 2,-3 2,-4 5,-8 8,-13 2,-5 5,-11 8,-17 2,-6 4,-12 5,-17 1,0 3,1 7,4 4,2 9,6 14,10 5,4 9,8 13,13 4,5 6,10 6,15 0,3 0,5 0,7 0,2 -1,4 -1,7 -5,10 -11,21 -18,33 -7,13 -14,26 -21,40 -7,14 -13,28 -18,42 -5,14 -8,28 -8,41 0,6 1,11 3,16 1,4 4,6 9,6 8,0 18,-6 30,-18 12,-11 24,-31 36,-57 0,0 0,-1 1,-1 2,0 3,0 4,1zm233 3c0,2 -2,8 -6,19 -4,11 -9,22 -16,33 -7,12 -16,22 -25,32 -10,9 -22,14 -34,14 -8,0 -15,-2 -22,-6 -6,-5 -13,-14 -19,-28 -2,3 -5,7 -8,11 -3,4 -8,8 -12,11 -5,4 -11,6 -18,9 -7,2 -16,3 -25,3 -14,0 -25,-3 -33,-9 -8,-7 -15,-14 -19,-23 -5,-9 -8,-19 -10,-29 -2,-10 -3,-19 -3,-26 0,-14 3,-30 9,-47 7,-17 15,-33 26,-48 11,-14 24,-27 40,-36 16,-10 33,-15 52,-15 12,0 20,1 26,4 6,3 12,6 18,10 2,-4 4,-7 5,-11 2,-3 3,-6 3,-8 1,0 3,1 7,4 4,2 9,6 14,10 4,4 9,9 13,14 4,5 6,10 6,15 0,3 0,7 -2,11 -1,5 -4,10 -8,17 -11,18 -21,38 -31,60 -10,21 -14,41 -14,59 0,7 0,12 2,16 1,4 4,6 10,6 7,0 17,-6 30,-18 12,-11 24,-31 36,-57 0,0 0,-1 1,-1 4,0 6,1 6,2 1,2 1,3 1,2zm-126 51c0,-3 0,-6 0,-8 0,-3 0,-5 0,-8 0,-17 2,-35 7,-53 5,-19 11,-36 17,-52 -5,-5 -9,-8 -12,-11 -4,-2 -9,-3 -16,-3 -10,0 -21,3 -31,10 -11,6 -20,14 -29,24 -8,10 -16,22 -21,34 -5,13 -8,25 -8,38 0,6 0,13 1,19 1,6 3,12 6,18 3,6 7,11 13,14 5,4 13,5 23,5 14,0 25,-3 33,-11 8,-7 13,-12 17,-16zm239 -29c8,-16 13,-32 18,-48 4,-15 5,-32 4,-50 -21,4 -37,9 -48,14 -11,4 -19,9 -25,14 -5,5 -9,10 -11,14 -2,4 -4,8 -6,12 -17,33 -33,65 -46,95 -14,29 -26,56 -37,78 -10,23 -19,41 -25,54 -6,13 -9,20 -9,20 -1,0 -2,0 -2,-1 -1,0 -2,-1 -2,-1 -1,0 -1,-1 -2,-1l-1 -1c1,-4 3,-11 6,-22 2,-12 6,-25 11,-41 4,-16 10,-34 15,-53 6,-19 12,-38 18,-58 6,-20 12,-40 18,-58 6,-19 11,-35 17,-50 1,-4 3,-10 6,-18 3,-8 6,-16 9,-25 4,-9 7,-18 9,-26 3,-9 5,-15 6,-20 1,0 4,1 9,3 4,2 9,5 14,9 6,4 10,8 15,13 4,5 7,10 8,15 2,-1 8,-4 18,-10 11,-5 22,-7 34,-7 20,0 33,6 39,18 6,13 9,27 8,45 -1,17 -5,34 -11,51 -6,18 -11,31 -16,41 14,3 25,5 33,7 7,2 13,4 16,5 4,1 6,2 6,3 1,1 1,2 1,2 0,4 -1,6 -4,6 -3,0 -11,-2 -21,-4 -11,-2 -24,-4 -39,-5 -9,17 -21,32 -38,43 -17,12 -34,18 -52,18 -15,0 -26,-4 -33,-11 -6,-7 -10,-14 -10,-22 0,-11 4,-20 10,-27 6,-6 14,-11 22,-15 9,-3 18,-5 27,-6 10,-1 17,-1 24,-1 3,0 6,0 8,0 3,0 6,0 9,1zm-25 35c3,-2 5,-4 7,-7 2,-3 5,-6 8,-10 -7,0 -14,1 -22,2 -7,2 -13,4 -19,6 -7,2 -11,5 -15,8 -4,3 -6,7 -6,10l0 2c1,2 3,2 8,2 5,0 11,0 19,-2 7,-2 14,-6 20,-11zm237 -128c-7,11 -15,24 -24,38 -9,15 -17,29 -26,44 -8,14 -15,27 -22,40 -6,12 -11,21 -12,27 0,0 -1,0 -2,2 -1,2 -3,5 -5,7 -3,3 -5,5 -8,8 -4,2 -7,3 -11,3 -3,0 -6,0 -9,0 -4,0 -8,-2 -11,-5 -4,-2 -7,-6 -9,-12 -3,-5 -4,-13 -4,-24 0,-13 1,-28 5,-45 3,-17 8,-35 13,-53 5,-19 11,-37 18,-56 6,-19 13,-36 19,-52 6,-16 11,-30 16,-43 5,-12 9,-21 11,-27l6 -18c2,-5 4,-10 5,-15 1,-6 2,-10 2,-13 1,0 5,1 10,4 5,2 10,4 16,8 6,3 11,7 16,12 4,5 7,11 7,18 0,8 -2,15 -5,21 -2,6 -7,15 -13,27 -6,12 -13,26 -20,42 -8,15 -16,32 -23,49 -8,18 -15,35 -22,53 -7,17 -12,32 -17,47 -4,15 -6,27 -6,37 0,0 1,0 1,-1 17,-27 34,-51 49,-73 16,-22 29,-40 41,-56 14,-19 27,-35 38,-49 3,-4 6,-9 8,-13 3,-4 6,-12 10,-23 0,0 2,1 7,4 4,2 8,6 13,10 5,4 9,8 13,14 4,5 6,10 6,14 0,3 0,5 0,8 0,2 0,5 -1,6 -5,10 -11,21 -18,33 -7,13 -14,26 -21,40 -7,14 -13,28 -18,42 -5,14 -7,28 -7,41 0,6 0,11 2,16 1,4 4,6 10,6 7,0 17,-6 30,-18 12,-11 24,-31 35,-57 0,0 0,-1 2,-1 2,0 4,1 6,2l1 2c0,1 -2,7 -5,18 -4,10 -9,21 -16,33 -7,12 -16,23 -26,33 -10,9 -22,14 -34,14 -12,0 -22,-5 -32,-16 -9,-10 -14,-26 -14,-47 0,-17 2,-35 8,-53 5,-19 11,-37 17,-53zm101 152c-8,-11 -13,-26 -13,-46 0,-17 3,-35 8,-53 5,-18 11,-35 18,-50 6,-16 12,-30 17,-42 6,-12 9,-21 10,-27 0,1 2,3 6,4 4,2 9,5 14,8 6,4 10,8 15,14 5,5 7,12 7,21 0,6 -3,14 -9,22l-1 0c-9,19 -19,39 -29,60 -11,20 -16,40 -16,59 0,6 1,11 3,15 2,4 6,6 12,6 10,0 22,-6 37,-18 14,-11 27,-31 39,-57 0,0 0,-1 1,-1 3,0 5,1 6,2l2 2c0,0 -1,4 -4,15 -2,10 -7,21 -14,33 -7,13 -16,24 -28,35 -12,10 -27,15 -45,15 -6,0 -12,-1 -18,-3 -7,-3 -12,-7 -18,-14zm115 -244c-3,6 -7,12 -13,16 -6,4 -12,6 -18,6 -8,0 -14,-3 -18,-9 -3,-6 -5,-12 -5,-20 0,-9 3,-17 8,-22 6,-6 13,-9 21,-9 8,0 15,2 20,8 5,5 8,11 8,19 0,4 -1,8 -3,11zm55 258c-10,-2 -18,-6 -25,-11 -8,-6 -15,-12 -20,-20 -5,-7 -10,-15 -13,-24 -2,-9 -4,-18 -4,-26 0,-17 2,-34 7,-50 4,-16 11,-30 20,-43 9,-13 21,-25 34,-34 14,-10 30,-16 48,-20l9 0c12,0 22,2 30,6 8,4 14,10 19,17 5,6 9,14 11,22 2,8 3,17 3,25 0,9 -3,20 -7,31 -4,12 -11,20 -20,24 -4,2 -8,3 -13,3 -9,0 -18,-1 -26,-4 -5,-2 -9,-4 -13,-6 3,-3 5,-8 8,-13 3,-6 6,-11 8,-16 2,-6 3,-11 5,-16 1,-4 2,-8 2,-9 0,-5 -2,-8 -5,-11 -4,-2 -7,-3 -11,-3 -7,0 -15,3 -24,9 -9,5 -17,13 -24,23 -7,9 -13,20 -18,31 -6,12 -8,23 -8,35 0,17 5,30 15,41 11,11 24,16 39,16 7,0 15,-1 22,-3 8,-3 15,-5 21,-9 6,-3 12,-7 18,-11 5,-4 10,-7 14,-10 10,-7 17,-14 22,-19 4,-6 8,-10 10,-14 2,-3 3,-6 4,-8 1,-1 2,-2 4,-2 4,0 5,1 5,2 0,2 -3,7 -8,18 -6,10 -14,22 -24,34 -11,12 -24,23 -40,33 -15,10 -33,15 -54,15 -7,0 -14,-1 -21,-3z"/>
  </g>
 </g>
</svg>
