<?xml version="1.0" encoding="UTF-8"?>
<!DOCTYPE svg PUBLIC "-//W3C//DTD SVG 1.1//EN" "http://www.w3.org/Graphics/SVG/1.1/DTD/svg11.dtd">
<!-- Creator: CorelDRAW X7 -->
<svg xmlns="http://www.w3.org/2000/svg" xml:space="preserve" width="15.7753mm" height="15.7753mm" version="1.1" style="shape-rendering:geometricPrecision; text-rendering:geometricPrecision; image-rendering:optimizeQuality; fill-rule:evenodd; clip-rule:evenodd"
viewBox="0 0 955 955"
 xmlns:xlink="http://www.w3.org/1999/xlink">
 <defs>
  <style type="text/css">
   <![CDATA[
    .fil0 {fill:black}
   ]]>
  </style>
 </defs>
 <g id="Warstwa_x0020_1">
  <metadata id="CorelCorpID_0Corel-Layer"/>
  <g id="_2809939944656">
   <path class="fil0" d="M475 576c36,0 72,8 97,21 24,11 42,20 61,39 9,9 3,0 15,14 26,32 16,15 41,61 12,22 23,66 23,93 -15,10 -29,19 -47,29 -52,28 -109,43 -169,45 -10,0 -10,2 -19,2 -7,0 -9,-1 -16,-2 -35,-2 -49,-1 -85,-12 -11,-3 -20,-5 -31,-9 -45,-17 -63,-27 -103,-53 0,-56 26,-112 63,-152 20,-22 29,-29 56,-45 29,-17 74,-31 114,-31zm-14 -576l48 0c16,1 30,3 43,6l0 76c-10,0 -24,-3 -34,-5 -12,-1 -27,-1 -37,-2 -12,-1 -24,1 -37,1 -39,1 -90,18 -125,32 -93,37 -177,124 -214,217 -8,21 -13,37 -19,59 -19,76 -13,162 15,236 4,11 8,17 12,28l28 50c6,8 10,15 16,23l18 21c1,-26 29,-81 44,-103l57 -64c22,-20 49,-34 75,-47 -3,-9 -11,-13 -17,-20 -67,-79 -54,-201 32,-266 35,-27 69,-37 119,-37 137,0 228,167 149,284 -12,18 -29,34 -30,39 28,14 51,25 75,48l36 36c24,26 64,100 64,130 46,-52 78,-114 93,-187 5,-24 7,-53 8,-76 1,-13 -7,-70 -7,-76l76 0c3,13 6,40 6,56 0,72 -4,113 -28,179 -5,15 -10,29 -16,41 -56,111 -122,177 -233,232 -56,28 -125,43 -193,44l-15 0c-69,-1 -138,-16 -195,-44 -110,-56 -176,-122 -232,-233 -33,-66 -43,-138 -43,-214 0,-90 35,-190 87,-262 67,-93 162,-161 275,-189 26,-6 62,-11 99,-13zm-94 392c0,-37 14,-64 40,-86 11,-9 10,-9 25,-16 40,-19 91,-10 123,22 71,71 14,188 -70,188 -39,0 -59,-6 -86,-33 -17,-17 -32,-43 -32,-75z"/>
   <polygon class="fil0" points="753,127 626,127 626,201 753,201 753,328 828,328 828,201 955,201 955,127 828,127 828,0 753,0 "/>
  </g>
 </g>
</svg>
