<svg height="232pt" preserveAspectRatio="xMidYMid meet" viewBox="0 0 300 232" width="300pt" xmlns="http://www.w3.org/2000/svg"><path d="m1259 2310c-221-26-438-141-599-317-70-76-183-247-232-351-53-112-112-295-138-427-11-60-22-110-23-110-1-1-30-18-64-38-89-54-169-144-189-214-20-67-9-141 31-209 35-60 128-139 210-180 84-41 250-78 312-69 42 6 43 5 127-74 152-142 315-235 499-283 111-29 355-32 467-5 151 37 306 113 418 206 31 26 86 61 122 78 148 69 267 227 365 483 84 223 120 436 96 580-8 52-16 70-41 93-26 23-39 27-91 27h-60l-18 43c-10 23-31 76-47 117-33 85-111 214-176 291-155 184-444 326-731 358-106 12-140 12-238 1zm456-89c330-87 607-357 729-709 34-98 36-111 36-232 0-265-82-559-204-733-57-80-93-109-165-133-74-24-98-13-133 56-45 89-67 224-68 415 0 142 12 241 36 287 14 26 19 29 47 24 144-27 221-14 276 49 75 86 37 214-69 231-68 11-174-44-222-115l-17-24-51 33c-27 18-85 59-128 92-137 106-183 119-305 83-32-9-61-14-65-11-3 4 4 66 16 139s22 155 22 184c0 102-74 142-173 92-63-32-205-182-254-270-40-71-80-175-103-267-7-29-18-46-33-52-110-45-406-160-412-160-14 0 4 224 25 310 25 100 93 248 154 334 143 201 371 341 639 392 103 20 319 12 422-15zm-485-639v-108l-66-21-66-22 6 27c9 40 105 232 116 232 6 0 10-46 10-108zm984-174c9-12 16-39 16-60 0-72-57-96-150-63-65 23-72 31-55 66 37 70 155 106 189 57zm-457-123c120-47 151-63 146-75-3-8-15-42-26-75-31-96-39-107-105-157-140-106-262-97-324 25-26 52-47 170-48 270v79l103-4c97-4 110-7 254-63zm-485-75c20-103 73-238 113-288 42-52 104-75 200-76 87 0 110 8 198 70 26 19 48 34 50 34 1 0-2-46-7-102-17-182 18-376 85-475 30-42 96-83 138-83 39 0 18-22-70-72-92-53-156-79-269-111-110-30-351-30-470 0-177 45-342 135-457 250-35 35-63 66-63 71 0 4 12 15 28 24 52 31 122 103 156 162 53 88 72 159 111 405 20 124 37 227 40 229 4 4 173 50 190 51 6 1 18-39 27-89zm-390-53c-6-85-33-294-47-355-15-63-63-168-96-211-19-24-78-71-89-71-12 0-82 143-111 227-43 127-76 330-57 349 10 9 392 113 398 108 2-3 3-24 2-47zm-561-243c42-115 108-250 173-349 25-38 41-71 36-73-19-7-149 18-202 39-30 11-77 37-103 57-139 105-172 249-79 352 35 38 110 83 129 77 6-2 26-48 46-103z" transform="matrix(.1 0 0 -.1 0 232)"/></svg>