<?xml version="1.0" encoding="UTF-8"?>
<!DOCTYPE svg PUBLIC "-//W3C//DTD SVG 1.1//EN" "http://www.w3.org/Graphics/SVG/1.1/DTD/svg11.dtd">
<!-- Creator: CorelDRAW X7 -->
<svg xmlns="http://www.w3.org/2000/svg" xml:space="preserve" width="29.9982mm" height="30mm" version="1.1" style="shape-rendering:geometricPrecision; text-rendering:geometricPrecision; image-rendering:optimizeQuality; fill-rule:evenodd; clip-rule:evenodd"
viewBox="0 0 962 962"
 xmlns:xlink="http://www.w3.org/1999/xlink">
 <defs>
  <style type="text/css">
   <![CDATA[
    .fil0 {fill:black}
   ]]>
  </style>
 </defs>
 <g id="Warstwa_x0020_1">
  <metadata id="CorelCorpID_0Corel-Layer"/>
  <g id="_2438965579376">
   <path class="fil0" d="M137 859l260 0 0 66 -260 0 0 -66zm161 -859l15 0c14,1 28,5 40,12 43,26 39,51 53,59 9,6 30,10 45,10 20,0 35,0 50,6 11,5 27,14 35,21 34,33 45,87 17,130 -7,10 -22,29 -34,33 0,58 7,100 -7,162 -18,77 -49,110 -64,210 -14,92 -12,171 -12,265 0,22 -3,54 -36,54l-267 0c-14,0 -24,-8 -29,-17 -8,-11 -6,-22 -6,-39 0,-105 2,-240 -29,-336l-24 -66c-34,-85 -35,-142 -30,-230 2,-33 6,-8 -8,-40 -4,-9 -6,-18 -7,-27l0 -18c3,-32 24,-61 57,-76 12,-5 22,-6 39,-6 9,-17 17,-29 33,-40 39,-27 60,-16 85,-16 17,-31 51,-49 84,-51zm-84 412c25,0 43,-5 58,-29 13,-21 10,-67 10,-99 0,-16 0,-22 11,-27 10,-5 19,-2 25,6 15,20 -7,64 18,93 11,12 29,23 50,20 31,-4 52,-28 52,-58 0,-39 -9,-32 37,-32 5,0 6,1 6,5 0,73 4,117 -22,184 -44,109 -41,108 -56,216l-5 62c0,12 1,23 0,34 0,11 -1,19 -1,32l-260 0c0,-11 -2,-14 -2,-26 1,-88 -11,-194 -42,-273 -27,-67 -38,-88 -40,-159 -1,-11 -3,-16 -2,-28 1,-16 0,-49 5,-50 0,0 17,4 22,5l57 1c31,0 27,2 27,61 -1,19 5,31 14,41 8,9 23,21 38,21zm167 -74c-33,0 -15,-51 -22,-77 -16,-66 -117,-58 -117,17 0,14 3,75 -3,85 -5,11 -21,16 -33,4 -4,-4 -6,-10 -6,-16 -4,-29 6,-59 -11,-80 -38,-47 -100,5 -139,-39 -22,-26 -11,-67 17,-81 28,-14 47,7 58,-13 7,-13 9,-32 35,-44 47,-22 66,21 83,-14 5,-10 6,-14 13,-21 35,-35 85,-23 104,14 31,64 97,37 131,52 42,18 56,76 13,110 -33,27 -96,-7 -104,47 -3,19 5,56 -19,56z"/>
   <path class="fil0" d="M675 913c0,-12 13,-18 21,-24l76 -60c4,3 8,6 12,9 4,3 8,6 12,10l51 40c4,4 8,6 12,10 16,12 12,27 -10,27l-156 0c-8,0 -18,-4 -18,-12zm109 -295c-30,0 -49,0 -77,-14 -27,-13 -39,-21 -58,-45 -6,-7 -10,-13 -14,-21 -14,-25 -18,-61 -12,-90 1,-7 -1,-7 14,-14 17,-7 36,-9 56,-9 52,0 69,27 106,39 13,4 46,11 62,9 19,-3 28,-2 47,-8 7,-2 7,-4 15,-5 0,9 2,9 2,15 0,30 -11,58 -26,80 -14,18 -38,39 -59,48 -13,6 -38,15 -56,15zm-203 -141c0,60 30,109 75,143 23,16 65,36 96,36l0 141c-6,1 -19,13 -24,17l-70 55c-15,12 -27,31 -20,57 5,20 26,36 46,36l173 0c14,0 27,-7 35,-14 23,-19 20,-58 -4,-77 -12,-9 -22,-17 -33,-26l-49 -39c-6,-5 -15,-9 -15,-15l0 -135c60,0 123,-48 153,-101 26,-47 19,-94 10,-145l-19 -120c-8,-50 -4,-44 -74,-44 -20,0 -31,16 -20,31 8,12 34,9 53,9 4,13 21,119 21,135 -18,4 -27,13 -60,13 -74,0 -80,-49 -165,-49 -23,0 -40,5 -59,10 2,-17 6,-36 9,-54l8 -55c28,0 59,6 59,-21 0,-25 -44,-19 -70,-19 -26,0 -24,22 -28,43 -5,28 -28,170 -28,188z"/>
   <path class="fil0" d="M242 684c10,0 16,3 21,8 21,20 3,48 -15,48l-9 0c-31,0 -33,-56 3,-56zm-65 23c0,21 3,38 19,54 41,41 114,11 114,-43l0 -13c0,-27 -32,-59 -58,-59 -23,0 -37,0 -56,20 -8,8 -19,26 -19,41z"/>
   <path class="fil0" d="M336 505c-26,0 -36,-46 4,-46 28,0 25,46 -4,46zm-62 -22c0,33 31,60 57,60l9 0c30,0 58,-28 58,-58 0,-21 -3,-33 -19,-49 -38,-37 -105,-10 -105,47z"/>
   <path class="fil0" d="M156 483c0,28 36,29 39,5 3,-28 -39,-27 -39,-5z"/>
   <path class="fil0" d="M772 286c19,0 27,-27 8,-37 -7,-4 -15,-3 -21,2 -14,11 -5,35 13,35z"/>
   <path class="fil0" d="M282 601c0,25 37,29 37,-2 0,-22 -37,-22 -37,2z"/>
  </g>
 </g>
</svg>
