<?xml version="1.0" standalone="no"?>
<!DOCTYPE svg PUBLIC "-//W3C//DTD SVG 20010904//EN"
 "http://www.w3.org/TR/2001/REC-SVG-20010904/DTD/svg10.dtd">
<svg version="1.0" xmlns="http://www.w3.org/2000/svg"
 width="300.000000pt" height="277.000000pt" viewBox="0 0 300.000000 277.000000"
 preserveAspectRatio="xMidYMid meet">

<g transform="translate(0.000000,277.000000) scale(0.100000,-0.100000)"
fill="#000000" stroke="none">
<path d="M1470 2760 c-8 -6 -28 -10 -45 -9 -16 1 -38 -2 -47 -6 -9 -4 -22 -4
-28 0 -5 3 -10 1 -10 -4 0 -6 -8 -11 -18 -11 -10 0 -50 -15 -89 -34 -39 -19
-74 -32 -77 -29 -3 4 -6 2 -6 -3 0 -5 -25 -29 -55 -53 -59 -47 -119 -121 -154
-189 -12 -23 -20 -42 -18 -42 2 0 48 15 103 34 311 108 632 108 947 0 56 -19
103 -34 105 -34 2 0 -9 22 -23 49 -35 63 -92 132 -152 182 -51 43 -195 119
-225 119 -10 0 -18 4 -18 10 0 5 -7 7 -15 4 -8 -3 -19 -2 -26 2 -6 4 -28 8
-48 9 -20 2 -47 6 -61 9 -14 4 -32 2 -40 -4z"/>
<path d="M2819 1069 c21 -30 -51 -254 -124 -384 -135 -242 -388 -461 -653
-567 -27 -10 -26 -11 33 -39 33 -16 66 -29 73 -29 7 0 10 -5 6 -12 -4 -6 -3
-8 3 -5 5 3 45 -1 89 -9 43 -9 88 -16 99 -15 46 1 111 10 126 16 9 3 27 7 40
9 13 2 35 8 49 14 14 5 28 8 33 5 4 -2 7 0 7 6 0 10 38 27 53 23 4 -1 7 3 7 9
0 5 5 7 10 4 6 -3 10 -2 10 3 0 5 12 15 27 23 33 17 163 144 163 159 0 5 5 10
10 10 6 0 10 7 10 15 0 8 5 15 11 15 5 0 7 5 4 10 -3 6 -1 10 5 10 6 0 8 5 5
10 -3 6 -1 10 5 10 6 0 8 5 5 10 -3 6 -1 10 6 10 7 0 9 3 6 6 -3 4 -1 16 5 28
7 11 13 24 14 29 1 4 3 10 4 15 1 4 3 12 5 17 1 6 3 12 4 15 11 22 21 270 11
270 -3 0 -11 24 -18 53 -16 71 -74 183 -118 232 -20 22 -31 33 -25 24z"/>
<path d="M130 1015 c-48 -69 -88 -163 -100 -235 -6 -36 -16 -80 -21 -98 -7
-23 -7 -43 1 -68 7 -19 10 -44 7 -55 -3 -10 -1 -22 4 -25 6 -3 9 -13 8 -22 -1
-10 3 -29 9 -43 6 -15 12 -35 14 -45 2 -11 5 -21 8 -24 7 -7 27 -53 28 -64 0
-5 4 -12 9 -15 4 -3 24 -28 43 -55 19 -27 46 -59 60 -72 47 -45 71 -64 78 -64
5 0 18 -9 30 -20 12 -11 23 -20 24 -20 9 2 68 -23 68 -29 0 -4 8 -7 18 -8 9
-1 31 -7 47 -14 17 -7 34 -11 39 -10 5 1 16 -1 25 -5 16 -6 70 -13 121 -15 34
-1 134 18 195 38 46 15 145 60 145 66 0 2 -9 3 -20 4 -11 1 -60 22 -110 47
-341 171 -581 462 -671 815 -10 41 -21 76 -23 78 -2 3 -18 -16 -36 -42z"/>
</g>
</svg>
