<?xml version="1.0" encoding="UTF-8"?>
<!DOCTYPE svg PUBLIC "-//W3C//DTD SVG 1.1//EN" "http://www.w3.org/Graphics/SVG/1.1/DTD/svg11.dtd">
<!-- Creator: CorelDRAW X7 -->
<svg xmlns="http://www.w3.org/2000/svg" xml:space="preserve" width="59.8896mm" height="52.0525mm" version="1.1" style="shape-rendering:geometricPrecision; text-rendering:geometricPrecision; image-rendering:optimizeQuality; fill-rule:evenodd; clip-rule:evenodd"
viewBox="0 0 4617 4013"
 xmlns:xlink="http://www.w3.org/1999/xlink">
 <defs>
  <style type="text/css">
   <![CDATA[
    .str0 {stroke:#2B2A29;stroke-width:77.0955}
    .fil1 {fill:none}
    .fil0 {fill:#2B2A29}
    .fil2 {fill:#2B2A29;fill-rule:nonzero}
   ]]>
  </style>
 </defs>
 <g id="Layer_x0020_1">
  <metadata id="CorelCorpID_0Corel-Layer"/>
  <g id="_2710959111856">
   <g>
    <path class="fil0 str0" d="M488 2163l0 0c-2,-27 2,-53 11,-77 207,-1361 1164,-2435 2585,-1914 802,294 1115,901 1242,1690l0 0c-8,2411 -2970,3050 -3814,378 -13,-23 -22,-49 -24,-77zm359 -28l0 5 0 0c112,2283 3388,2367 3479,-278 -503,-2600 -3731,-2003 -3479,273l0 0z"/>
   </g>
   <ellipse class="fil1" transform="matrix(-0.243367 -3.09963 3.09963 -0.243367 2496.74 2005.51)" rx="610" ry="590"/>
   <path class="fil2 str0" d="M4579 1881c0,71 -11,161 -32,270 -21,108 -52,223 -92,344 -41,122 -90,242 -148,362 -58,120 -125,227 -199,323 -75,95 -157,173 -248,233 -90,59 -187,89 -291,89 -100,0 -180,-33 -240,-99 -60,-66 -105,-152 -136,-257 -31,-106 -49,-221 -53,-347 -5,-127 -1,-249 12,-367 3,-27 6,-53 9,-78l-8 9c-46,47 -111,94 -195,140 -24,15 -42,25 -56,30 -40,14 -86,22 -138,23 -52,1 -104,-4 -155,-15 -50,-11 -98,-29 -142,-54 -44,-24 -77,-57 -100,-97 -60,-108 -105,-213 -132,-316 -28,-104 -49,-204 -64,-303 -40,15 -92,29 -154,44 -63,14 -126,30 -190,46 -17,113 -36,227 -56,343 -20,115 -37,229 -51,341 -9,64 -26,133 -51,207 -25,74 -60,145 -105,213 -45,67 -99,130 -162,186 -63,57 -137,100 -221,131 -115,41 -240,49 -376,23 -154,-22 -295,-74 -423,-154 -128,-80 -222,-174 -283,-282 -45,-80 -65,-157 -60,-230 6,-74 28,-143 68,-209 40,-66 92,-125 156,-177 64,-52 134,-97 210,-134 105,-51 255,-118 451,-201 196,-83 416,-168 658,-255 24,-145 64,-276 120,-393 55,-117 118,-219 188,-307 70,-88 140,-160 209,-216 70,-56 130,-93 181,-111 40,-15 77,-17 111,-8 33,9 69,48 109,118 12,22 16,57 13,105 -4,48 -11,102 -21,162 -11,61 -23,124 -36,190 -13,67 -22,129 -25,189 88,-32 160,-53 216,-65 221,-48 355,133 565,278 57,38 113,72 168,102 39,-72 91,-127 158,-168 66,-40 131,-63 194,-68 63,-5 118,11 165,46 47,36 70,96 70,180 0,81 -31,149 -95,204 -63,55 -141,82 -235,82 -45,0 -91,-5 -136,-14 -45,-10 -84,-21 -116,-34 -26,13 -47,55 -63,128 -17,73 -27,160 -32,262 -5,102 -4,210 2,323 7,113 20,219 39,316 20,97 45,177 75,240 31,63 71,95 119,95 107,0 202,-41 284,-122 83,-81 155,-184 216,-310 62,-127 111,-265 148,-415 38,-151 63,-295 78,-432 15,-138 17,-260 7,-367 -9,-107 -32,-179 -68,-218 13,0 26,-2 39,-5 13,0 28,-1 44,-3 16,-1 32,-2 48,-2 26,0 58,3 95,10 37,6 64,17 80,34 3,9 10,17 20,22 9,4 19,18 29,41 9,22 17,60 24,111 6,52 10,131 10,238zm-1392 322c6,-32 13,-62 20,-91 25,-96 51,-166 81,-211 -120,-42 -213,-77 -280,-105 -66,-27 -122,-50 -169,-68 -47,-17 -93,-30 -139,-36 -45,-7 -107,-10 -184,-10 -13,0 -26,1 -39,2 -18,6 -36,11 -54,17 -1,100 4,207 14,322 10,114 36,209 78,285 30,54 77,94 141,121 64,28 140,26 227,-6 37,-13 70,-30 97,-49 27,-20 53,-37 77,-52 58,-49 101,-88 130,-119zm-1060 -1115c-95,125 -170,280 -224,465 41,-12 82,-25 121,-39 38,-14 77,-26 115,-37 -7,-71 -12,-140 -12,-206 -1,-66 -1,-127 0,-183zm-1720 1205c-111,56 -176,134 -197,233 -21,100 -6,194 44,283 37,67 90,125 158,174 68,48 141,87 219,115 79,28 159,45 241,50 81,4 154,-5 218,-28 104,-37 184,-101 239,-190 55,-89 97,-190 125,-302 28,-112 47,-229 57,-353 9,-123 21,-237 35,-342 -143,35 -284,71 -425,109 -141,37 -282,81 -423,132 -98,35 -195,75 -291,119zm3424 -601c0,-68 -18,-111 -53,-129 -36,-17 -76,-20 -122,-7 -45,13 -87,37 -126,73 -39,35 -61,74 -68,116 36,20 80,38 131,56 52,18 96,27 131,27 36,0 63,-14 81,-41 17,-28 26,-59 26,-95z"/>
  </g>
 </g>
</svg>
