<svg id="Layer_1" enable-background="new 0 0 479.998 479.998" height="512" viewBox="0 0 479.998 479.998" width="512" xmlns="http://www.w3.org/2000/svg"><g><path d="m54.999 98.683v293.315c0 4.418 3.582 8 8 8s8-3.582 8-8v-291h45c8.822 0 16 7.178 16 16v96.887c0 20.457 16.352 37.548 36.452 38.099 21.272.585 38.548-16.48 38.548-37.485v-50.103c0-4.418-3.582-8-8-8s-8 3.582-8 8v50.103c0 12.182-10.062 21.845-22.11 21.491-11.519-.315-20.89-10.231-20.89-22.104v-96.887c0-17.645-14.355-32-32-32h-52.156c-13.196-3.414-8.483-41.367 19.045-40.997 4.526.066 8.955 1.337 12.807 3.672 3.866 2.345 8.889 1.015 11.106-2.894 11.285-19.894 37.854-24.997 55.652-10.391 4.105 3.362 10.285 2.122 12.754-2.646 10.806-20.97 40.772-20.983 51.585.004 2.435 4.72 8.606 6.034 12.76 2.636 17.734-14.556 44.328-9.55 55.646 10.396 2.222 3.919 7.246 5.231 11.105 2.894 3.852-2.335 8.28-3.605 12.808-3.672 27.536-.367 32.232 37.585 19.044 40.997h-115.156c-17.645 0-32 14.355-32 32 0 12.041-.111 11.903.36 13.415.613 1.969 1.992 3.658 3.827 4.655 2.511 1.366-2.293.949 99.813.949v231.981c0 8.822-7.178 16-16 16h-156c-8.822 0-16-7.178-16-16v-239.932c0-4.418-3.582-8-8-8s-8 3.582-8 8v239.932c0 17.645 14.355 32 32 32h156c17.645 0 32-14.355 32-32v-240c0-4.357-3.502-7.984-8-7.984h-96v-3.016c0-8.822 7.178-16 16-16 124.17 0 116.329.072 117.432-.129 34.868-6.344 24.701-73.654-21.557-72.866-4.776.07-9.488.965-13.923 2.624-16.239-21.003-45.507-26.84-68.576-13.45-17.96-22.913-52.813-22.892-70.754 0-23.098-13.405-52.357-7.525-68.574 13.45-4.435-1.659-9.147-2.554-13.923-2.624-42.926-.726-54.947 57.199-28.125 70.68z"/><path d="m210.999 319.998c4.418 0 8-3.582 8-8s-3.582-8-8-8c-17.645 0-32 14.355-32 32s14.355 32 32 32 32-14.355 32-32c0-4.418-3.582-8-8-8s-8 3.582-8 8c0 8.822-7.178 16-16 16s-16-7.178-16-16 7.178-16 16-16z"/><circle cx="251.999" cy="262.998" r="16"/><circle cx="251.999" cy="200.998" r="12"/><circle cx="145.999" cy="287.998" r="16"/><path d="m384.999 115.998h-46c-4.418 0-8 3.582-8 8v308c0 4.418 3.582 8 8 8 4.411 0 8 3.589 8 8v8c0 4.411-3.589 8-8 8h-276c-4.411 0-8-3.589-8-8v-8c0-4.411 3.589-8 8-8h232.871c4.418 0 8-3.582 8-8s-3.582-8-8-8h-232.871c-13.234 0-24 10.767-24 24v8c0 13.233 10.766 24 24 24h276c13.233 0 24-10.767 24-24v-8c0-10.429-6.689-19.321-16-22.624v-75.376h23c17.645 0 32-14.355 32-32v-130c0-15.444-11.012-28.68-26.183-31.471-4.345-.799-8.516 2.074-9.315 6.421-.799 4.345 2.075 8.516 6.421 9.315 7.577 1.394 13.077 8.012 13.077 15.734v130c0 8.822-7.178 16-16 16h-23v-202h38c22.056 0 40 17.944 40 40v162c0 22.056-17.944 40-40 40h-5.774c-4.418 0-8 3.582-8 8s3.582 8 8 8h5.774c30.879 0 56-25.121 56-56v-162c0-30.878-25.121-55.999-56-55.999z"/></g></svg>