<?xml version="1.0" encoding="UTF-8"?>
<!DOCTYPE svg PUBLIC "-//W3C//DTD SVG 1.1//EN" "http://www.w3.org/Graphics/SVG/1.1/DTD/svg11.dtd">
<!-- Creator: CorelDRAW X7 -->
<svg xmlns="http://www.w3.org/2000/svg" xml:space="preserve" width="22.7344mm" height="25.3125mm" version="1.1" style="shape-rendering:geometricPrecision; text-rendering:geometricPrecision; image-rendering:optimizeQuality; fill-rule:evenodd; clip-rule:evenodd"
viewBox="0 0 516 574"
 xmlns:xlink="http://www.w3.org/1999/xlink">
 <defs>
  <style type="text/css">
   <![CDATA[
    .fil0 {fill:black}
   ]]>
  </style>
 </defs>
 <g id="Warstwa_x0020_1">
  <metadata id="CorelCorpID_0Corel-Layer"/>
  <path class="fil0" d="M130 461l0 -76 60 -23c5,-2 15,-7 20,-7 6,9 4,18 4,34 0,13 0,26 0,39l-84 33zm-107 -151c1,1 0,-1 1,2 6,10 6,11 15,21 11,14 10,12 19,21 9,9 37,28 50,31l0 165c-15,-3 -37,-22 -48,-33 -12,-13 -23,-35 -29,-52 -8,-25 -8,-41 -8,-73 0,-27 0,-55 0,-82zm107 242l0 -68c8,-1 79,-32 89,-35 6,21 45,30 66,5 8,-9 10,-19 10,-35 7,-4 17,-7 25,-10l123 -50c8,-3 45,-18 50,-19l0 68 -339 135c-9,4 -14,6 -24,9zm165 -157l0 -69c1,-9 6,-8 20,-14 4,-2 16,-7 21,-8 0,22 -2,38 15,49 21,14 44,-1 47,-20 2,-11 1,-41 1,-55l94 -37 0 75c-8,2 -17,7 -25,10l-173 69zm-61 -273c22,1 45,27 45,49 0,17 -4,34 -16,44 -47,37 -92,-2 -92,-34 0,-22 5,-39 25,-52 34,-23 2,24 30,24 16,0 8,-24 8,-31zm-85 52c0,43 33,77 74,78 39,1 79,-32 79,-79 0,-9 -2,-12 -3,-19 6,3 14,6 21,9l65 26c7,3 83,34 88,34l0 3c-5,0 -14,5 -19,7l-57 23c-24,9 -20,18 -19,60 0,6 1,20 -10,20 -13,0 -9,-18 -9,-32 0,-12 -8,-21 -20,-23 -8,-1 -52,17 -59,24 -8,9 -8,19 -8,35l1 85c-1,24 -22,28 -33,17 -3,-4 -5,-8 -5,-15 0,-15 2,-68 -2,-77 -9,-23 -31,-17 -48,-10 -16,7 -49,22 -65,22 -29,0 -52,-29 -68,-48 -15,-18 -29,-54 -29,-87 0,-37 11,-66 26,-89 11,-16 13,-17 28,-31 46,-41 75,-6 109,2l-7 5c-8,6 -13,12 -18,20 -6,9 -12,25 -12,40zm64 -78c-20,-5 -63,-30 -87,-30 -25,0 -41,5 -60,21 -40,32 -66,85 -66,143l0 178c0,46 15,82 33,110 20,29 52,56 89,56 25,0 98,-34 128,-45l249 -99c10,-4 17,-5 17,-19l0 -182c0,-15 -12,-16 -28,-23l-202 -80c-9,-4 -27,-26 -52,-26 5,-23 5,-49 30,-71 3,-3 7,-5 10,-7 16,-11 4,-22 -4,-22 -12,0 -33,24 -40,36 -8,14 -17,38 -17,60z"/>
 </g>
</svg>
