<svg id="Capa_1" enable-background="new 0 0 512 512" height="512" viewBox="0 0 512 512" width="512" xmlns="http://www.w3.org/2000/svg"><g><path d="m484.5 483.515h-281.792c-4.142 0-7.5-3.358-7.5-7.5s3.358-7.5 7.5-7.5h281.792c6.893 0 12.5-5.607 12.5-12.5 0-1.378-1.122-2.5-2.5-2.5h-477c-1.378 0-2.5 1.122-2.5 2.5 0 6.893 5.607 12.5 12.5 12.5h145.208c4.142 0 7.5 3.358 7.5 7.5s-3.358 7.5-7.5 7.5h-145.208c-15.164 0-27.5-12.336-27.5-27.5 0-7.112 4.265-13.247 10.372-15.982 3.013-23.863 23.87-39.168 45.379-41.732 2.123-12.021 6.231-27.36 13.041-44.471h-14.92c-5.177 4.268-16.902 12.848-27.481 12.848-7.96 0-14.63-3.185-19.291-9.211-4.711-6.092-7.1-14.886-7.1-26.137s2.389-20.045 7.101-26.137c4.66-6.026 11.331-9.211 19.291-9.211 10.579 0 22.304 8.58 27.481 12.848h26.226c4.144 0 9.652-2.717 15.86-6.665 23.819-35.406 63.993-76.162 126.689-88.073-10.73-9.069-16.377-23.311-16.377-42.162 0-4.142 3.358-7.5 7.5-7.5 21.964 0 37.672 7.667 46.23 22.107 8.558-14.44 24.266-22.107 46.23-22.107 4.142 0 7.5 3.358 7.5 7.5 0 34.648-19.082 53.73-53.73 53.73-52.531 0-91.209 20.862-118.868 46.388 15.032-8.16 32.165-14.337 51.947-14.337 36.094 0 65.932 19.083 77.868 49.801 7.685 19.776 6.673 40.756-2.106 59.216 18.269-4.629 38.407-4.563 51.725-3.75 19.024 1.164 38.695 4.565 55.403 9.359-9.797-16.552-15.027-35.486-15.033-55.223-.002-7.037 4.193-13.323 10.689-16.015 6.48-2.686 13.874-1.214 18.836 3.748l14.631 14.631c2.929 2.929 2.929 7.678 0 10.606-2.929 2.929-7.678 2.929-10.606 0l-14.631-14.631c-.893-.893-1.846-.764-2.487-.498-.654.271-1.433.864-1.432 2.153.008 24.976 9.717 48.459 27.343 66.146.082.079.162.159.24.241l18.284 18.283c2.929 2.929 2.929 7.678 0 10.606-2.929 2.929-7.678 2.93-10.606 0l-17.549-17.548c-17.232-8.469-46.739-15.221-73.997-16.887-32.33-1.975-57.79 3.22-69.848 14.257-2.708 2.479-4.123 5.604-4.204 9.29-.104 4.684 2.078 9.723 5.836 13.481l23.537 23.537h31.115c-8.396-9.069-12.787-22.108-12.787-38.73 0-4.142 3.358-7.5 7.5-7.5 32.062 0 50.794 16.336 53.412 46.23h94.384c11.085 0 18.006-7.175 20.788-13.89.977-2.359 1.633-5.121 1.733-8.05-.014-.185-.021-.372-.021-.561 0-.507-.001-1.014-.003-1.52-.28-4.828-2.147-9.951-6.586-14.391l-49.021-49.021c-2.929-2.929-2.929-7.678 0-10.606 2.929-2.929 7.678-2.929 10.606 0l43.251 43.251c-4.203-37.049-15.947-67.958-35.067-92.167-25.298-32.032-63.838-52.635-114.55-61.235-4.084-.693-6.833-4.565-6.141-8.648.692-4.084 4.564-6.833 8.648-6.141 106.225 18.016 162.827 86.253 163.848 197.411.448 5.766-.473 11.702-2.84 17.417-1.226 2.959-2.768 5.686-4.579 8.149h15.837c9.649 0 17.5 7.851 17.5 17.5 0 15.167-12.336 27.503-27.5 27.503zm-333.705-45h102.965l-12.931-12.931c-5.426-5.426-8.903-12.303-9.921-19.413-6.362-1.168-18.378-2.517-32.023.273-19.432 3.975-35.565 14.744-48.09 32.071zm-59.377 0h4.82c-8.395-9.069-12.787-22.108-12.787-38.73 0-4.142 3.358-7.5 7.5-7.5 27.021 0 44.573 11.604 50.993 33.146 14.295-17.803 32.672-29.334 53.936-33.683 15.307-3.131 28.745-1.902 36.755-.513 1.529-3.774 3.889-7.193 6.985-10.042.019-.017.037-.035.056-.052 19.924-18.239 26.55-44.371 17.291-68.198-9.644-24.817-34.124-40.234-63.887-40.234-30.013 0-54.468 17.606-74.118 31.752-15.029 10.82-26.901 19.367-38.863 19.367h-29.002c-1.853 0-3.641-.686-5.018-1.926-5.057-4.532-14.515-10.922-19.688-10.922-7.559 0-11.391 6.846-11.391 20.348s3.833 20.348 11.391 20.348c5.173 0 14.631-6.39 19.694-10.927 1.376-1.233 3.165-1.92 5.012-1.92h29.001c15.775 0 26.027 9.795 36.881 20.165 8.891 8.495 18.968 18.123 34.366 25.314 3.753 1.753 5.375 6.216 3.622 9.969-1.752 3.753-6.217 5.375-9.969 3.622-17.63-8.234-29.136-19.227-38.38-28.06-8.821-8.428-14.793-13.839-21.832-15.481-11.674 27.621-15.867 50.316-15.867 61.657-.001 12.407 10.092 22.5 22.499 22.5zm-65.513 0h35.53c-4.718-6.271-7.518-14.065-7.518-22.5 0-.71.014-1.459.042-2.245-12.895 2.675-24.755 11.515-28.054 24.745zm282.812-30.814c2.069 18.491 11.908 28.33 30.399 30.399-2.07-18.491-11.908-28.33-30.399-30.399zm-209.85 0c2.069 18.491 11.908 28.33 30.399 30.399-2.07-18.491-11.909-28.33-30.399-30.399zm199.447-227.856c-18.491 2.069-28.33 11.908-30.399 30.399 18.491-2.069 28.33-11.908 30.399-30.399zm-76.628 0c2.069 18.491 11.908 28.33 30.399 30.399-2.07-18.49-11.909-28.329-30.399-30.399zm128.314-14.271c-1.919 0-3.839-.732-5.303-2.197-23.103-23.103-23.103-48.549 0-71.651 17.206-17.206 17.206-33.233 0-50.438-2.929-2.929-2.929-7.678 0-10.606 2.929-2.929 7.678-2.929 10.606 0 23.103 23.103 23.103 48.549 0 71.651-17.205 17.206-17.205 33.232 0 50.438 2.929 2.929 2.929 7.678 0 10.606-1.464 1.465-3.384 2.197-5.303 2.197zm-90 0c-1.919 0-3.839-.732-5.303-2.197-23.103-23.103-23.103-48.549 0-71.651 17.206-17.206 17.206-33.233 0-50.438-2.929-2.929-2.929-7.678 0-10.606 2.929-2.929 7.678-2.929 10.606 0 23.103 23.103 23.103 48.549 0 71.651-17.205 17.206-17.205 33.232 0 50.438 2.929 2.929 2.929 7.678 0 10.606-1.464 1.465-3.384 2.197-5.303 2.197zm-90 0c-1.919 0-3.839-.732-5.303-2.197-23.103-23.103-23.103-48.549 0-71.651 17.206-17.206 17.206-33.233 0-50.438-2.929-2.929-2.929-7.678 0-10.606 2.929-2.929 7.678-2.929 10.606 0 23.103 23.103 23.103 48.549 0 71.651-17.205 17.206-17.205 33.232 0 50.438 2.929 2.929 2.929 7.678 0 10.606-1.464 1.465-3.384 2.197-5.303 2.197z"/></g></svg>