<?xml version="1.0" encoding="UTF-8"?>
<!DOCTYPE svg PUBLIC "-//W3C//DTD SVG 1.1//EN" "http://www.w3.org/Graphics/SVG/1.1/DTD/svg11.dtd">
<!-- Creator: CorelDRAW X7 -->
<svg xmlns="http://www.w3.org/2000/svg" xml:space="preserve" width="30mm" height="30mm" version="1.1" style="shape-rendering:geometricPrecision; text-rendering:geometricPrecision; image-rendering:optimizeQuality; fill-rule:evenodd; clip-rule:evenodd"
viewBox="0 0 13778 13778"
 xmlns:xlink="http://www.w3.org/1999/xlink">
 <defs>
  <style type="text/css">
   <![CDATA[
    .fil0 {fill:black}
   ]]>
  </style>
 </defs>
 <g id="Warstwa_x0020_1">
  <metadata id="CorelCorpID_0Corel-Layer"/>
  <g id="_2445219818048">
   <path class="fil0" d="M459 10305l0 -1120 12860 0 0 1120c0,176 -137,258 -316,258l-12228 0c-179,0 -316,-82 -316,-258zm-459 -8296l0 8382c0,316 316,631 631,631l12515 0c316,0 632,-315 632,-631l0 -8382c0,-316 -316,-631 -632,-631 -557,0 -746,-78 -746,258 0,454 919,-70 919,459l0 6631 -12860 0 0 -6631c0,-381 500,-217 745,-260 275,-48 195,-457 2,-457l-575 0c-315,0 -631,315 -631,631z"/>
   <path class="fil0" d="M2296 718c0,-157 102,-259 259,-259l8668 0c157,0 259,102 259,259l0 1119 -9186 0 0 -1119zm-459 -87l0 7464c0,231 459,231 459,0l0 -5799 9186 0 0 5799c0,240 459,225 459,0l0 -7464c0,-315 -316,-631 -632,-631l-8840 0c-316,0 -632,316 -632,631z"/>
   <path class="fil0" d="M4133 13118c0,-157 102,-259 259,-259l4994 0c295,0 259,277 259,460l-5512 0 0 -201zm-459 -86c0,382 -76,746 230,746l5970 0c306,0 230,-364 230,-746 0,-238 -168,-439 -327,-535 -294,-176 -591,-33 -758,-132 -3,-1 -107,-83 -113,-88 -450,-386 -466,-824 -725,-824 -162,0 -230,104 -230,258 0,105 126,289 177,368 93,142 199,225 225,321l-2928 0c40,-150 402,-436 402,-717 0,-200 -283,-397 -470,-39 -105,201 -402,605 -598,721 -160,95 -467,-34 -740,121 -164,94 -345,292 -345,546z"/>
   <path class="fil0" d="M5970 7578c0,176 100,229 287,229 149,0 223,-309 270,-448 65,-197 125,-377 186,-560 161,-483 1094,-3141 1094,-3412 0,-152 -178,-172 -287,-172 -162,0 -221,304 -269,448l-559 1680c-97,291 -722,2088 -722,2235z"/>
   <path class="fil0" d="M8496 4306c0,153 -17,165 123,279 156,126 1001,868 1112,897l0 58c-86,23 -317,239 -406,312l-806 688c-120,182 78,401 249,362 81,-19 340,-245 410,-307l815 -678c233,-188 511,-365 220,-629 -130,-117 -1375,-1155 -1430,-1155 -108,0 -287,20 -287,173z"/>
   <path class="fil0" d="M3444 5511c0,180 204,274 409,453l969 810c74,59 150,156 276,132 107,-20 212,-141 212,-247 0,-148 -464,-487 -590,-586 -99,-77 -579,-464 -644,-562 88,-131 771,-658 926,-796 256,-228 280,-166 280,-409 0,-153 -179,-173 -288,-173 -76,0 -1037,845 -1205,976 -157,122 -345,240 -345,402z"/>
   <path class="fil0" d="M7807 1091c0,138 -9,287 201,287l2785 0c308,0 308,-459 0,-459l-2813 0c-69,0 -173,103 -173,172z"/>
   <path class="fil0" d="M6200 9874c0,139 91,230 230,230l947 0c308,0 308,-459 0,-459l-947 0c-139,0 -230,90 -230,229z"/>
   <path class="fil0" d="M2756 1148c0,308 459,308 459,0 0,-308 -459,-308 -459,0z"/>
   <path class="fil0" d="M3674 1148c0,308 459,308 459,0 0,-308 -459,-308 -459,0z"/>
   <path class="fil0" d="M4593 1148c0,308 459,308 459,0 0,-308 -459,-308 -459,0z"/>
  </g>
 </g>
</svg>
