<?xml version="1.0" encoding="UTF-8"?>
<!DOCTYPE svg PUBLIC "-//W3C//DTD SVG 1.1//EN" "http://www.w3.org/Graphics/SVG/1.1/DTD/svg11.dtd">
<!-- Creator: CorelDRAW X7 -->
<svg xmlns="http://www.w3.org/2000/svg" xml:space="preserve" width="30.0023mm" height="30mm" version="1.1" style="shape-rendering:geometricPrecision; text-rendering:geometricPrecision; image-rendering:optimizeQuality; fill-rule:evenodd; clip-rule:evenodd"
viewBox="0 0 688 688"
 xmlns:xlink="http://www.w3.org/1999/xlink">
 <defs>
  <style type="text/css">
   <![CDATA[
    .fil0 {fill:black}
   ]]>
  </style>
 </defs>
 <g id="Warstwa_x0020_1">
  <metadata id="CorelCorpID_0Corel-Layer"/>
  <g id="_2445219884000">
   <path class="fil0" d="M33 627l28 27c-14,2 -29,16 -36,9 -7,-7 7,-23 8,-36zm272 16l77 0c-19,29 -58,29 -77,0zm-28 -33c0,-6 6,-11 13,-11l108 0c16,0 16,22 0,22l-108 0c-7,0 -13,-6 -13,-11zm-206 -79l86 86c-12,3 -64,25 -74,28l-40 -41c2,-6 5,-12 7,-18l14 -36c2,-6 5,-14 7,-19zm206 35c0,-6 6,-11 13,-11l108 0c16,0 16,22 0,22l-108 0c-7,0 -13,-6 -13,-11zm-99 39l-40 -39 81 -81c7,5 32,34 35,43l-76 77zm299 -117c0,-9 2,-14 7,-19 12,-12 16,-16 26,-29 4,-4 3,-4 9,-5 56,-14 90,54 52,92 -27,28 -74,18 -89,-16 -2,-6 -5,-16 -5,-23zm-355 61l-39 -38 83 -84 18 21c6,8 14,14 18,21l-80 80zm499 -118c0,15 3,24 13,34 8,7 17,12 31,12l0 22c-14,0 -22,3 -32,14 -11,11 -12,19 -12,35 0,11 7,20 12,26l-15 15c-15,-13 -31,-16 -50,-8 -16,7 -25,22 -25,40l-22 0c0,-26 -20,-44 -42,-44 -16,0 -20,1 -33,12 -3,-2 -5,-5 -9,-8 -5,-5 -5,-3 -5,-10 2,-24 -7,-20 -6,-28 3,-14 26,-40 27,-44 6,5 1,21 25,45 47,46 132,13 132,-52 0,-27 -7,-44 -24,-61 -16,-15 -34,-21 -57,-21 6,-10 13,-31 13,-47 5,6 3,13 15,24 11,11 21,12 35,12 11,0 20,-7 26,-12l16 15c-7,8 -13,15 -13,29zm-455 -87c0,-10 3,-25 4,-33l118 0c0,28 -5,50 17,62 16,9 83,1 105,4 5,1 11,6 11,11 0,15 -22,11 -37,11 -16,0 -87,-2 -97,2 -31,13 -27,56 3,64 16,4 43,-6 43,13l0 54 -52 0c-7,-33 -60,-74 -75,-93 -16,-21 -26,-27 -35,-61 -2,-7 -5,-25 -5,-34zm358 -86c-10,-18 -11,-20 -23,-36 -3,-4 -6,-6 -8,-11l50 -50 39 38 -58 59zm-160 -90c12,3 22,4 33,7 25,8 59,28 76,49 28,33 48,73 48,119 0,22 -6,46 -14,61 -10,18 -14,21 -24,33 -4,5 -5,6 -9,10l-39 39c-8,10 -26,32 -29,46l-51 0 0 -58c0,-14 -13,-26 -25,-30 -7,-2 -17,0 -25,0 -9,0 -17,-3 -17,-11 0,-15 23,-12 38,-12 16,0 86,3 96,-1 27,-11 29,-47 5,-61 -13,-7 -66,-4 -85,-4 -36,0 -32,2 -32,-44l60 0c26,0 51,-26 51,-52l0 -8c0,-25 -23,-51 -55,-51l-2 -32zm113 27c-4,-2 -16,-12 -23,-17 -8,-6 -15,-9 -24,-14l57 -59 40 39 -50 51zm-322 27l22 0c3,-12 8,-22 23,-22 5,0 12,3 15,7 4,4 5,9 7,15l22 0c0,-13 -4,-21 -10,-28 -8,-10 -13,-11 -22,-15 1,-15 12,-31 20,-39 46,-41 112,-5 112,49 0,6 -2,15 -6,18 -9,9 -28,15 -28,48l23 0c2,-32 37,-42 56,-23 13,13 13,35 -1,47 -5,5 -15,9 -25,9l-291 0c-64,0 -60,-76 -17,-86 10,-3 20,-2 29,1 15,7 25,21 27,41l22 0c0,-17 -7,-36 -20,-48l-18 -12c-8,-4 -15,-6 -26,-6 0,-13 -8,-31 6,-59 5,-10 9,-17 18,-26 9,-9 15,-13 26,-18 51,-25 106,14 112,37 -19,13 -34,29 -40,53 -1,3 -1,6 -2,9 -3,10 -6,3 -20,15 -8,8 -14,17 -14,33zm349 -133l17 -17 95 94 -17 17 -95 -94zm33 -33c27,-40 88,-47 117,-3 21,32 9,76 -22,97l-95 -94zm-131 98c-4,-1 -7,-2 -12,-4 -12,-3 -28,-6 -41,-6 -1,-5 -7,-12 -11,-16 -22,-22 -38,-28 -70,-28 -9,0 -13,2 -20,3 -3,-12 -23,-32 -35,-40 -76,-51 -173,9 -173,87 0,8 0,24 3,30 -25,6 -47,34 -47,59 0,20 1,30 15,47 22,28 47,25 79,25 18,0 35,0 53,0 -5,21 -4,48 1,70 1,5 1,7 3,12 1,4 3,8 4,12 -8,12 -96,93 -100,102 -9,23 -55,141 -55,149 0,20 12,32 32,32 7,0 55,-20 64,-23l78 -31c9,-3 8,-1 14,-8 8,-8 15,-14 22,-22l45 -44c0,6 0,12 1,16 1,4 6,10 6,12 0,0 -23,36 13,53 11,5 2,-2 9,11 9,18 33,36 54,36 28,0 45,-7 62,-30 6,-8 4,-8 7,-13 3,-6 -2,-1 5,-4 4,-2 4,-2 7,-4 5,-3 7,-6 10,-11 3,-6 3,-9 3,-17l14 12c10,-6 14,-18 28,-21 13,-3 25,8 25,22l0 21 66 0 0 -21c0,-13 11,-25 25,-22 14,2 18,14 28,21l47 -47c-6,-10 -18,-14 -21,-27 -3,-14 8,-26 22,-26l21 0 0 -66 -21 0c-13,0 -25,-11 -22,-24 2,-15 15,-19 21,-29l-47 -47c-9,6 -14,18 -27,21 -14,3 -26,-8 -26,-22l0 -21 -22 0c0,-8 -2,-20 -3,-27 -2,-10 -5,-16 -7,-24 5,-7 15,-16 21,-22l106 -106c36,-36 37,-92 1,-128 -35,-35 -92,-35 -127,1l-128 127z"/>
   <path class="fil0" d="M521 488c0,-14 22,-14 22,0 0,14 -22,14 -22,0zm-22 -3c0,49 66,49 66,0 0,-17 -14,-30 -36,-30 -15,0 -30,15 -30,30z"/>
  </g>
 </g>
</svg>
