<?xml version="1.0" encoding="UTF-8"?>
<!DOCTYPE svg PUBLIC "-//W3C//DTD SVG 1.1//EN" "http://www.w3.org/Graphics/SVG/1.1/DTD/svg11.dtd">
<!-- Creator: CorelDRAW X7 -->
<svg xmlns="http://www.w3.org/2000/svg" xml:space="preserve" width="30mm" height="30mm" version="1.1" style="shape-rendering:geometricPrecision; text-rendering:geometricPrecision; image-rendering:optimizeQuality; fill-rule:evenodd; clip-rule:evenodd"
viewBox="0 0 820 820"
 xmlns:xlink="http://www.w3.org/1999/xlink">
 <defs>
  <style type="text/css">
   <![CDATA[
    .fil0 {fill:black}
   ]]>
  </style>
 </defs>
 <g id="Warstwa_x0020_1">
  <metadata id="CorelCorpID_0Corel-Layer"/>
  <g id="_2445219880192">
   <path class="fil0" d="M0 424c0,38 9,67 32,92 61,69 127,30 170,54 57,33 34,72 53,115 37,86 133,68 213,68 37,0 74,0 112,0l-16 16 18 19c8,-2 47,-44 47,-48 0,-8 -4,-12 -8,-16 -9,-9 -32,-33 -38,-37l-19 20 16 16c-43,1 -85,1 -127,1 -35,0 -95,4 -123,-4 -8,-2 -13,-6 -20,-10 -18,-11 -34,-36 -36,-60 -1,-11 0,-17 -2,-28 -2,-9 -5,-17 -8,-25 -10,-23 -23,-31 -27,-37l98 0 -17 18 19 20c8,-5 18,-17 24,-24 29,-28 29,-27 1,-54 -7,-7 -17,-19 -24,-24l-20 19 17 18c-33,0 -202,3 -227,-3 -70,-18 -97,-90 -71,-141 5,-11 7,-15 15,-24 19,-22 43,-37 78,-37l144 0c0,-19 3,-29 -5,-29l-125 0c-23,0 -41,3 -59,9 -31,11 -55,35 -71,63 -7,12 -14,35 -14,53z"/>
   <path class="fil0" d="M504 72l0 24 186 0c97,0 138,125 63,183 -30,22 -51,20 -89,20l15 -15 -19 -20c-4,3 -45,40 -45,50 0,10 12,19 21,28 7,7 17,18 24,23l19 -19 -16 -17c26,-1 42,0 64,-6 48,-13 93,-64 93,-118 0,-41 -12,-77 -43,-103 -31,-26 -54,-35 -100,-35l-168 0c-4,0 -5,1 -5,5z"/>
   <path class="fil0" d="M684 740c0,-44 46,-72 85,-47 8,6 13,13 18,22 10,21 3,46 -10,60 -31,34 -93,12 -93,-35zm136 -12l0 19c-1,9 -4,18 -9,27 -2,5 -4,9 -7,12 -8,11 -5,8 -13,14 -8,7 -7,7 -18,12 -15,7 -22,8 -37,8l-3 0 -1 0c-40,0 -77,-41 -77,-82 0,-22 11,-44 25,-58 54,-54 132,-13 140,48z"/>
   <path class="fil0" d="M740 600c-54,0 -71,-60 -42,-90 24,-24 63,-22 80,1 34,42 0,89 -38,89zm-85 -54c0,15 7,36 15,47l15 16c60,50 135,-2 135,-58 0,-26 -6,-46 -25,-63 -38,-36 -93,-31 -124,11 -9,12 -16,31 -16,47z"/>
   <path class="fil0" d="M136 80c0,61 -78,77 -103,25 -12,-25 -2,-54 21,-69 3,-3 9,-5 14,-6 37,-9 68,19 68,50zm-60 -80l15 0c19,2 37,10 51,26 61,66 -12,166 -93,131 -8,-3 -18,-10 -24,-16 -20,-19 -25,-38 -25,-66 0,-20 14,-44 29,-56 15,-11 31,-17 47,-19z"/>
   <path class="fil0" d="M413 50l16 17 -227 0c-14,0 -11,-2 -11,29l238 0 -16 16 20 21c6,-5 17,-17 24,-24 28,-28 30,-25 1,-53 -6,-7 -17,-19 -24,-24 -8,2 -14,13 -21,18z"/>
   <path class="fil0" d="M346 365l19 -19 -16 -17 239 -1 0 -29 -239 0 16 -17 -19 -18c-7,5 -28,27 -37,36 -4,4 -9,6 -9,14 0,10 14,20 21,27 6,6 18,19 25,24z"/>
   <path class="fil0" d="M564 514c4,7 13,11 16,19l-170 0 0 27 170 0 -17 18 20 19c3,-2 45,-41 46,-50 0,-10 -22,-29 -32,-39 -5,-4 -8,-10 -14,-12l-19 18z"/>
   <path class="fil0" d="M67 660l0 24 29 0 0 -29 -24 0c-4,0 -5,1 -5,5z"/>
   <polygon class="fil0" points="123,684 151,684 151,655 123,655 "/>
   <polygon class="fil0" points="178,684 205,684 205,655 178,655 "/>
  </g>
 </g>
</svg>
