<?xml version="1.0" encoding="UTF-8"?>
<!DOCTYPE svg PUBLIC "-//W3C//DTD SVG 1.1//EN" "http://www.w3.org/Graphics/SVG/1.1/DTD/svg11.dtd">
<!-- Creator: CorelDRAW X7 -->
<svg xmlns="http://www.w3.org/2000/svg" xml:space="preserve" width="18.1036mm" height="18.1036mm" version="1.1" style="shape-rendering:geometricPrecision; text-rendering:geometricPrecision; image-rendering:optimizeQuality; fill-rule:evenodd; clip-rule:evenodd"
viewBox="0 0 1569 1569"
 xmlns:xlink="http://www.w3.org/1999/xlink">
 <defs>
  <style type="text/css">
   <![CDATA[
    .fil0 {fill:black}
   ]]>
  </style>
 </defs>
 <g id="Warstwa_x0020_1">
  <metadata id="CorelCorpID_0Corel-Layer"/>
  <g id="_2810024358128">
   <path class="fil0" d="M70 892c13,-7 55,-16 74,-25l110 83c10,8 16,15 30,19 11,3 29,6 41,8 90,18 55,29 55,80 0,46 46,84 -20,105 -26,9 -33,8 -39,35 -9,38 -15,82 -24,120 -22,-15 -49,-50 -68,-72 -34,-40 -81,-112 -102,-162l-33 -89c-4,-13 -6,-20 -9,-34 -6,-23 -11,-44 -15,-68zm727 677l-25 0c-62,-1 -124,-9 -181,-24 -49,-13 -100,-30 -141,-50 -66,-32 -195,-116 -245,-181 -7,-9 -14,-15 -21,-24 -20,-26 -44,-54 -61,-83 -6,-10 -11,-18 -18,-29l-32 -62c-53,-123 -73,-212 -73,-353 0,-114 31,-208 72,-308 10,-24 20,-42 32,-63 12,-20 24,-39 37,-58 46,-65 100,-122 164,-170l84 -57c105,-64 245,-107 368,-107 146,0 232,20 357,72 96,40 206,123 270,205 28,36 54,72 78,112 12,19 24,41 33,61 57,128 74,218 74,362 0,106 -37,249 -90,339 -23,38 -46,77 -72,112 -5,6 -8,11 -14,17l-43 49c-18,18 -75,81 -103,79 -14,-1 -28,-14 -28,-29 0,-24 23,-36 38,-49l66 -65c18,-19 33,-38 48,-60 14,-21 28,-40 40,-63 26,-48 48,-94 64,-151 24,-85 29,-148 29,-240 0,-23 -3,-31 -3,-52l-2 3c-7,15 -13,27 -24,40 -82,93 -80,-77 -129,-130 -17,-18 -18,-33 -47,-33 3,14 9,18 2,32 -6,12 -13,14 -21,22 -10,10 -11,12 -23,20 -10,7 -16,12 -25,19 -16,11 -94,51 -117,51 -26,0 -45,-54 -55,-73 -10,-22 -50,-87 -53,-106 -10,-45 7,-16 -35,-58 -17,-17 -74,-19 -74,-51 0,-63 94,-17 111,-1 16,16 47,38 56,57 9,18 -1,33 8,50 4,6 7,10 11,18 3,7 5,11 9,18 12,24 31,49 38,76 50,-25 51,-26 101,-59 -4,-7 -13,-22 -13,-33 0,-21 20,-43 40,-43 41,0 77,-8 107,22 32,32 52,58 67,102l10 23c0,-39 23,-47 37,-68 4,-15 -29,-89 -38,-109 -15,-35 -31,-63 -50,-93 -19,-29 -40,-60 -63,-85l-92 -88c-96,-82 -266,-155 -388,-155 -4,14 -51,66 -62,80 -6,8 -13,18 -20,25 -21,22 -130,54 -167,67 -59,19 -46,11 -69,68 -7,17 -27,50 -18,65l39 54c5,-4 15,-18 21,-24 38,-40 147,-64 147,-10 0,39 -41,29 -67,35 -20,4 -51,24 -52,49l73 -4c40,-2 89,19 77,64 11,3 23,13 33,19 9,-6 14,-14 24,-19 6,-3 25,-9 32,-9 6,0 80,24 88,28 34,14 42,23 59,55 25,45 41,116 75,151 13,13 21,11 43,15 17,4 29,6 40,15 75,62 -97,148 -97,205 0,2 5,22 7,27 19,69 -11,75 -43,124 -14,22 -12,34 -34,61 -28,33 -3,46 -61,98 -18,16 -54,39 -87,39 -59,0 -87,-117 -109,-163 -42,-89 -4,-111 -4,-159 0,-25 -24,-39 -36,-59 -13,-24 -3,-69 -22,-69 -32,0 -54,9 -98,9 -65,0 -125,-46 -148,-104 -28,-71 -12,-146 35,-199l79 -99c-3,-12 -14,-23 -21,-33 -85,-119 -80,-67 -20,-219 22,-55 34,-51 87,-69 41,-13 78,-27 118,-41 36,-13 26,-5 48,-32 12,-15 23,-28 33,-44 -107,0 -235,29 -323,82 -28,17 -91,47 -109,72 71,47 87,144 24,207 -28,28 -36,45 -55,77 -51,85 -38,93 -119,148 16,24 67,76 26,99 -18,10 -91,17 -112,17 -27,0 -20,-4 -40,-18 0,13 -2,32 -1,39 0,8 1,26 1,40 7,-3 22,-6 31,-9 37,-13 52,-28 85,-3 30,23 59,45 89,68 63,47 41,20 116,43 32,10 65,48 65,91 0,13 -6,24 -6,43 0,32 39,75 -8,130 -18,20 -46,25 -53,32 -7,7 -26,124 -31,145 13,3 32,20 45,28l92 49c153,71 368,85 531,23 20,-7 65,-20 65,19 0,31 -30,36 -54,44 -73,25 -153,37 -234,39zm0 -947c21,0 41,-12 46,-28 12,1 35,10 47,14 40,13 38,23 57,66 30,67 55,162 144,162 -9,34 -104,72 -104,160 0,42 25,58 -3,86 -38,39 -28,44 -45,72 -8,14 -16,19 -24,34 -10,17 -8,28 -15,43 -7,15 -45,48 -67,50 -11,-18 -18,-34 -26,-57 -11,-31 -44,-97 -44,-121 1,-25 37,-83 -4,-143 -28,-39 -19,-1 -24,-53 -4,-45 -36,-77 -82,-77 -31,0 -52,13 -83,13 -56,0 -107,-49 -107,-105 0,-77 31,-89 73,-144 43,-57 29,-58 141,-58 0,1 0,1 0,2 0,0 0,1 0,1 2,14 0,19 13,30 15,14 76,53 107,53zm-681 12c0,28 9,32 31,65 -32,0 -30,13 -59,-15 -9,-9 -16,-10 -14,-27 4,-23 11,-49 17,-70 14,-49 32,-95 56,-140 2,-4 5,-9 8,-14 30,-50 31,-54 69,-102 23,-30 49,-52 61,-71 17,9 26,10 39,26 22,27 22,63 -3,93 -57,66 -30,29 -81,116 -8,14 -15,26 -23,41 -23,39 -17,29 -67,65 -8,6 -34,21 -34,33z"/>
   <path class="fil0" d="M1137 1229c0,-24 0,-19 6,-37 21,-56 -3,-65 13,-79 5,-3 21,-10 27,-13l-20 66c-5,16 -15,50 -26,63zm-65 -10c0,41 30,77 68,77 52,0 77,-85 89,-129 20,-73 43,-97 12,-171 -9,-23 -41,-34 -61,6 -28,54 -13,31 -54,56 -59,35 -26,70 -44,116 -4,13 -10,30 -10,45z"/>
   <path class="fil0" d="M784 386c0,55 65,43 65,9 0,-49 -65,-37 -65,-9z"/>
   <path class="fil0" d="M1192 1440c0,-21 -10,-34 -31,-34 -29,0 -41,33 -24,52 17,20 55,10 55,-18z"/>
  </g>
 </g>
</svg>
