<?xml version="1.0" encoding="UTF-8"?>
<!DOCTYPE svg PUBLIC "-//W3C//DTD SVG 1.1//EN" "http://www.w3.org/Graphics/SVG/1.1/DTD/svg11.dtd">
<!-- Creator: CorelDRAW X7 -->
<svg xmlns="http://www.w3.org/2000/svg" xml:space="preserve" width="13.4479mm" height="12.9177mm" version="1.1" style="shape-rendering:geometricPrecision; text-rendering:geometricPrecision; image-rendering:optimizeQuality; fill-rule:evenodd; clip-rule:evenodd"
viewBox="0 0 162 156"
 xmlns:xlink="http://www.w3.org/1999/xlink">
 <defs>
  <style type="text/css">
   <![CDATA[
    .fil0 {fill:black}
   ]]>
  </style>
 </defs>
 <g id="Warstwa_x0020_1">
  <metadata id="CorelCorpID_0Corel-Layer"/>
  <path class="fil0" d="M0 76c0,4 3,7 6,7 5,0 7,-5 10,-7 0,18 0,35 0,53 0,11 5,20 15,25 3,1 7,2 11,2l21 0c4,0 7,-3 7,-6l0 -52 23 0 0 52c0,3 3,6 6,6l21 0c25,0 33,-32 20,-32 -5,0 -6,4 -7,7 0,2 0,2 0,4 -2,4 -6,8 -11,8l-17 0 0 -52c0,-2 -1,-3 -2,-4 -1,-1 -3,-2 -5,-2l-33 0c-4,0 -7,2 -7,6l0 52 -17 0c-4,0 -8,-3 -9,-5 -3,-2 -3,-5 -3,-10l0 -64c0,-1 2,-3 2,-4l42 -42c5,-5 8,-8 15,-2 1,2 3,3 4,5l40 40c1,1 2,1 2,3l0 28c0,3 -1,7 0,9 2,5 9,6 12,1 1,-2 0,-5 0,-8 0,-6 0,-12 0,-18 3,2 6,7 10,7 3,0 6,-3 6,-6l0 -2c0,-1 0,-2 -1,-3 -2,-2 -36,-36 -39,-39l-2 -3c-4,-4 -20,-19 -25,-24 -2,-2 -4,-3 -6,-4 -1,-1 -2,-1 -3,-2 -7,-1 -14,2 -18,6l-67 66c0,1 -1,2 -1,4z"/>
 </g>
</svg>
