<?xml version="1.0" encoding="UTF-8"?>
<!DOCTYPE svg PUBLIC "-//W3C//DTD SVG 1.1//EN" "http://www.w3.org/Graphics/SVG/1.1/DTD/svg11.dtd">
<!-- Creator: CorelDRAW X7 -->
<svg xmlns="http://www.w3.org/2000/svg" xml:space="preserve" width="16.0194mm" height="16.0194mm" version="1.1" style="shape-rendering:geometricPrecision; text-rendering:geometricPrecision; image-rendering:optimizeQuality; fill-rule:evenodd; clip-rule:evenodd"
viewBox="0 0 1000 1000"
 xmlns:xlink="http://www.w3.org/1999/xlink">
 <defs>
  <style type="text/css">
   <![CDATA[
    .fil0 {fill:black}
   ]]>
  </style>
 </defs>
 <g id="Warstwa_x0020_1">
  <metadata id="CorelCorpID_0Corel-Layer"/>
  <g id="_2810024337680">
   <path class="fil0" d="M45 297c0,15 14,18 25,18 9,0 16,-15 19,-23 5,-10 9,-17 15,-26 11,-19 36,-56 52,-71l75 -68c11,-9 13,-3 43,8l73 28c6,2 12,2 15,7 2,3 3,9 5,14 2,6 4,9 8,14 13,18 30,29 57,29 39,0 77,-55 137,-20 12,7 20,14 28,25 15,20 24,63 6,80 -16,14 -56,9 -79,28 -26,22 -23,39 -32,76 -7,29 -16,63 -5,89 20,46 63,37 90,43 37,8 34,-27 20,-35 -24,-13 -75,4 -75,-34 0,-12 3,-24 5,-34 11,-55 8,-71 40,-80 21,-5 44,-8 59,-21l18 -21c10,-18 9,-29 9,-49 0,-61 -62,-118 -114,-118 -40,0 -49,2 -87,22 -11,7 -19,12 -33,6 -15,-6 -13,-12 -18,-26 -9,-25 -28,-28 -52,-38l-48 -18c-6,-2 -13,-5 -18,-6 25,-22 115,-45 147,-51 9,-1 16,-1 26,-3 49,-7 107,1 153,11 23,5 65,28 65,-10 0,-16 -16,-18 -28,-21 -13,-4 -23,-7 -38,-10 -33,-7 -64,-11 -95,-12l-34 0c-85,3 -164,28 -242,75 -11,6 -18,11 -28,18 -18,12 -61,49 -74,64 -23,28 -38,43 -60,79 -6,11 -30,48 -30,61z"/>
   <path class="fil0" d="M199 842l-4 0c-1,-5 -14,-21 -19,-26l-19 -25c-7,-9 -13,-16 -20,-25 -31,-42 -77,-89 -91,-138 -28,-96 46,-200 151,-200 125,0 209,145 122,259l-100 128c-4,6 -18,21 -20,27zm-199 -264c0,92 34,119 82,182 18,23 36,45 54,69l41 53c23,32 42,-1 53,-15 9,-12 16,-22 25,-33l91 -117c21,-27 46,-67 47,-104 18,14 45,83 68,83 10,0 20,-9 20,-22 0,-10 -49,-77 -56,-85 -12,-16 -35,-47 -40,-65 -3,-10 -6,-17 -11,-25 -7,-14 -17,-32 -28,-42 -6,-7 -11,-12 -17,-18 -50,-50 -147,-66 -214,-33 -23,12 -40,23 -57,41l-2 2c-32,35 -56,78 -56,129z"/>
   <path class="fil0" d="M715 908c-14,4 -81,42 -158,49 -13,1 -28,1 -41,3 -26,3 -51,-3 -78,-3 6,-11 11,-22 17,-33 36,0 61,-5 81,-37 17,-27 8,-60 12,-75 2,-7 9,-16 9,-21 0,-33 -46,-32 -51,28 -1,21 8,47 -19,61 -8,4 -22,5 -34,5 -32,0 -24,9 -49,50 -4,6 -6,7 -7,15l-50 -16c-19,-7 -28,-10 -48,-20 -12,-6 -22,-13 -35,-13 -15,0 -32,24 0,41 9,4 18,9 27,13 21,9 35,16 58,23 47,14 96,21 144,22l23 0c79,-1 156,-22 227,-62 23,-14 66,-41 86,-60 12,-12 24,-21 37,-35 24,-28 7,-42 -8,-42 -14,0 -23,17 -38,31 -8,7 -60,51 -64,51 -17,0 -45,-32 -45,-60l7 -97c2,-12 8,-61 2,-71 -6,-10 -20,-14 -30,-4 -10,10 -9,38 -10,54 -3,65 -25,133 14,181 3,4 7,9 10,12 6,5 6,3 11,10z"/>
   <path class="fil0" d="M838 365c-8,-5 -60,-74 -70,-88 -3,-4 -5,-6 -9,-10l-25 -34c-44,-60 -18,-166 70,-189 53,-14 114,10 138,55 15,27 20,43 17,81 0,11 -7,31 -11,39 -4,7 -6,9 -10,15l-22 29c-8,11 -76,97 -78,102zm-10 -365l16 0c36,2 72,15 98,39l20 19c21,24 38,64 38,98 0,57 -13,84 -46,124 -8,10 -15,19 -22,29 -7,9 -15,18 -22,28l-45 57c-4,5 -7,10 -11,15 -19,25 -38,-4 -46,-15l-69 -88c-35,-43 -67,-81 -67,-144 0,-63 38,-119 94,-146 19,-10 40,-15 62,-16z"/>
   <path class="fil0" d="M191 516c82,0 98,85 60,123 -31,31 -76,31 -106,1 -50,-49 -4,-124 46,-124zm-107 66c0,40 7,61 35,89 43,43 115,42 156,1 12,-12 15,-16 24,-31 10,-18 12,-37 12,-59 0,-98 -149,-160 -215,-45 -6,10 -12,30 -12,45z"/>
   <path class="fil0" d="M836 123c34,0 60,44 30,73 -16,17 -42,17 -60,0 -27,-27 -6,-73 30,-73zm-82 39c0,25 6,43 23,61 26,27 69,33 99,16l22 -17c28,-32 28,-82 -1,-111 -62,-62 -143,-8 -143,51z"/>
   <path class="fil0" d="M957 664c16,0 20,-9 24,-23 11,-41 18,-79 19,-116l0 -44c-1,-35 -7,-72 -16,-111 -4,-14 -8,-22 -23,-22 -32,0 -12,46 -8,69 11,63 10,117 -3,180 -3,15 -26,67 7,67z"/>
   <path class="fil0" d="M430 789c0,14 14,22 17,22 38,0 40,-45 12,-45 -8,0 -29,10 -29,23z"/>
   <path class="fil0" d="M529 649c0,28 45,21 45,-12 0,-25 -45,-25 -45,12z"/>
   <path class="fil0" d="M369 848c11,0 30,-10 30,-20 0,-7 1,-21 -17,-24 -8,-1 -17,3 -23,8 -18,16 -3,36 10,36z"/>
   <path class="fil0" d="M817 516c0,14 -2,29 21,29 21,0 22,-34 13,-42 -12,-14 -34,-5 -34,13z"/>
   <path class="fil0" d="M785 613c29,0 43,-35 14,-43 -8,-2 -16,2 -23,7 -16,12 -9,36 9,36z"/>
   <path class="fil0" d="M680 602c0,4 2,10 5,13 7,9 44,14 44,-15 0,-22 -35,-23 -44,-11 -3,3 -5,8 -5,13z"/>
   <path class="fil0" d="M483 719c0,25 26,28 37,12 17,-27 0,-37 -14,-37 -11,0 -23,14 -23,25z"/>
   <path class="fil0" d="M592 602c0,28 49,26 49,2 0,-30 -37,-25 -44,-15 -3,3 -5,8 -5,13z"/>
   <path class="fil0" d="M55 381c0,-17 -8,-22 -22,-22 -18,0 -24,25 -13,37 12,12 35,4 35,-15z"/>
   <path class="fil0" d="M897 740c0,32 39,26 39,0 0,-26 -39,-25 -39,0z"/>
  </g>
 </g>
</svg>
