<?xml version="1.0" encoding="UTF-8"?>
<!DOCTYPE svg PUBLIC "-//W3C//DTD SVG 1.1//EN" "http://www.w3.org/Graphics/SVG/1.1/DTD/svg11.dtd">
<!-- Creator: CorelDRAW X7 -->
<svg xmlns="http://www.w3.org/2000/svg" xml:space="preserve" width="16.5693mm" height="18.1188mm" version="1.1" style="shape-rendering:geometricPrecision; text-rendering:geometricPrecision; image-rendering:optimizeQuality; fill-rule:evenodd; clip-rule:evenodd"
viewBox="0 0 643 704"
 xmlns:xlink="http://www.w3.org/1999/xlink">
 <defs>
  <style type="text/css">
   <![CDATA[
    .fil0 {fill:black}
   ]]>
  </style>
 </defs>
 <g id="Warstwa_x0020_1">
  <metadata id="CorelCorpID_0Corel-Layer"/>
  <g id="_2810024330000">
   <path class="fil0" d="M21 401l0 -8c9,0 11,-1 21,-1 22,0 48,-1 67,10 29,18 44,86 82,86 31,0 46,-32 112,-5 15,6 39,19 48,32 8,13 15,46 5,63 -6,11 -16,20 -27,26 -18,10 -25,10 -37,16 -12,6 -23,11 -32,20 -8,7 -21,20 -23,31 -19,-1 -66,-27 -83,-39 -18,-12 -20,-15 -34,-26l-23 -23c-27,-35 -34,-41 -53,-83 -10,-23 -23,-65 -23,-99zm312 303l-18 0c-30,-1 -60,-6 -88,-14 -51,-16 -95,-43 -133,-80 -33,-33 -61,-75 -76,-120 -22,-66 -25,-138 -2,-205 2,-6 5,-14 6,-20 4,-10 -19,-24 -19,-60 0,-36 36,-72 71,-72 23,0 17,1 36,6 8,-6 15,-12 24,-18 33,-22 44,-28 81,-42 36,-14 112,-23 144,-16 1,-14 19,-36 28,-43 22,-16 34,-20 63,-20 52,0 97,61 78,112 -2,5 -6,12 -7,17l24 22c12,12 22,22 32,36 11,14 18,25 27,41 2,5 5,9 8,15 24,56 31,86 31,150 0,98 -56,198 -136,253 -19,13 -28,17 -49,28 -37,19 -81,28 -125,30zm-36 -253c-4,-3 -19,-26 -23,-32 -15,-22 -37,-51 -15,-76 37,-44 97,-5 81,40 -4,11 -36,63 -43,68zm-243 -145l0 0zm0 0c-6,0 -16,-5 -21,-8 1,-4 3,-10 4,-14l17 22zm457 -158c4,3 10,7 13,10 28,28 49,51 67,88 20,40 33,84 33,144 0,4 -1,4 -5,4 -19,0 -65,-14 -83,-32 -39,-39 14,-88 -50,-120 -8,-4 -21,-10 -29,-13 1,-4 3,-6 5,-10l42 -60c3,-4 4,-8 7,-11zm-432 5c34,0 66,33 52,71 -5,15 -16,31 -24,43 -4,6 -8,13 -13,19l-17 20c-1,-5 -9,-15 -12,-20l-27 -39c-13,-23 -25,-45 -4,-72 10,-13 28,-22 45,-22zm81 57c0,31 31,55 31,91 0,40 -75,24 -97,19 31,-46 89,-103 44,-159 -3,-5 -7,-7 -10,-11l24 -17c3,-3 6,-4 9,-6 8,-5 30,-18 39,-20 0,39 -10,49 -30,78 -4,7 -10,15 -10,25zm170 -129l25 1c0,46 34,85 59,120 3,5 8,11 10,15 -4,-1 -7,-2 -11,-3 -11,-3 -23,-7 -33,-12 -27,-15 -45,-36 -51,-67 -6,-25 0,-36 1,-54zm114 -62c11,0 23,4 32,8 33,17 47,62 26,95l-8 13c-12,21 -20,32 -32,50 -4,6 -13,21 -18,24 -5,-4 -21,-28 -26,-35 -4,-5 -6,-8 -9,-13 -17,-25 -39,-53 -33,-86 4,-20 19,-39 36,-47 4,-2 9,-5 14,-6 3,-1 15,-3 18,-3zm-137 84c0,20 -1,31 5,50 6,18 17,34 30,47 5,5 16,12 22,16 9,4 16,8 25,12 10,4 19,6 30,9 9,3 46,16 55,21 22,13 25,18 28,49 2,24 -6,37 14,63 15,20 49,33 74,39 9,2 31,4 31,7 0,18 -9,51 -14,66 -14,40 -47,92 -79,120 -50,45 -107,73 -177,81 -7,1 -13,0 -20,1 -11,1 -44,-2 -56,-4 -5,-1 -12,-2 -18,-3 2,-16 33,-35 49,-41 8,-3 15,-5 22,-9 35,-17 53,-37 53,-76 0,-12 -4,-22 -7,-31 -2,-5 -2,-10 -5,-15 -8,-13 -41,-36 -57,-39l29 -43c11,-17 22,-35 22,-56 0,-33 -31,-63 -63,-63 -30,0 -51,13 -64,38 -14,27 -4,49 12,74l24 37c-26,0 -35,-3 -61,10 -35,17 -32,-4 -71,-57 -33,-44 -79,-34 -119,-34 0,-12 2,-42 6,-52 1,-3 0,-2 3,-1l12 5c5,3 12,5 18,7 33,11 99,28 132,6 37,-23 12,-75 -4,-103 -21,-35 8,-32 28,-90 4,-12 6,-31 3,-45 14,-3 19,-7 42,-11 16,-3 28,-6 48,-6 -1,7 -2,13 -2,21z"/>
   <path class="fil0" d="M414 89c0,-15 15,-30 30,-30 15,0 29,16 29,30 0,15 -14,29 -29,29 -14,0 -30,-14 -30,-29zm-19 -5c0,16 1,27 13,39 30,31 84,9 84,-31 0,-15 -2,-27 -14,-38 -32,-33 -83,-4 -83,30z"/>
   <path class="fil0" d="M57 210c-1,-4 3,-13 5,-16 14,-16 37,-7 40,13 3,25 -40,35 -45,3zm-20 -5c0,13 2,23 12,34 24,24 72,7 72,-26l0 -8c0,-19 -20,-39 -38,-39l-9 0c-17,0 -37,21 -37,39z"/>
   <path class="fil0" d="M281 370c0,-19 31,-21 31,0 0,21 -31,20 -31,0zm-20 -3l0 7c0,15 16,31 32,31l7 0c16,0 31,-15 31,-31l0 -7c0,-16 -15,-32 -31,-32l-7 0c-16,0 -32,16 -32,32z"/>
  </g>
 </g>
</svg>
