<?xml version="1.0" encoding="iso-8859-1"?>
<!-- Generator: Adobe Illustrator 19.0.0, SVG Export Plug-In . SVG Version: 6.00 Build 0)  -->
<svg version="1.1" id="Capa_1" xmlns="http://www.w3.org/2000/svg" xmlns:xlink="http://www.w3.org/1999/xlink" x="0px" y="0px"
	 viewBox="0 0 512 512" style="enable-background:new 0 0 512 512;" xml:space="preserve">
<g>
	<g>
		<path d="M437.016,74.987C405.335,43.305,365.85,20.432,322.834,8.842c-4.035-1.088-8.194,1.303-9.284,5.343
			c-1.088,4.039,1.304,8.195,5.343,9.284c40.461,10.902,77.604,32.421,107.412,62.229c45.49,45.49,70.543,105.973,70.543,170.306
			c0,64.333-25.053,124.815-70.543,170.306c-45.49,45.49-105.973,70.543-170.306,70.543S131.183,471.8,85.693,426.31
			c-45.49-45.49-70.543-105.974-70.543-170.306S40.203,131.188,85.694,85.697c50.708-50.708,120.798-76.06,192.285-69.544
			c4.156,0.375,7.851-2.69,8.23-6.856c0.38-4.166-2.689-7.85-6.855-8.23C203.365-5.85,128.88,21.089,74.982,74.987
			C26.631,123.338,0.003,187.624,0.003,256.003c0,68.379,26.628,132.665,74.979,181.017C123.335,485.371,187.621,512,256,512
			s132.665-26.629,181.018-74.98c48.351-48.351,74.979-112.637,74.979-181.017C511.996,187.624,485.368,123.338,437.016,74.987z"/>
	</g>
</g>
<g>
	<g>
		<circle cx="106.358" cy="244.137" r="8"/>
	</g>
</g>
<g>
	<g>
		<circle cx="200.036" cy="124.549" r="8"/>
	</g>
</g>
<g>
	<g>
		<circle cx="292.685" cy="145.079" r="8"/>
	</g>
</g>
<g>
	<g>
		<circle cx="292.685" cy="177.078" r="8"/>
	</g>
</g>
<g>
	<g>
		<path d="M467.06,245.31c-3.039-55.164-27.38-105.843-68.535-142.699l-43.552-39.003c-0.907-0.812-1.864-1.545-2.862-2.2
			c-4.172-3.272-9.315-4.924-14.66-4.626c-5.832,0.321-11.19,2.895-15.088,7.247l-8.352,9.326
			c-20.917-17.079-46.972-26.408-74.188-26.408c-54.224,0-99.974,36.951-113.41,86.993c-30.119,8.007-56.064,27.881-71.695,55.119
			c-2.082,3.628-0.828,8.257,2.8,10.339c1.188,0.682,2.483,1.006,3.762,1.006c2.624,0,5.177-1.366,6.576-3.806
			c12.374-21.564,32.161-37.828,55.345-45.851c-0.471,4.057-0.733,8.176-0.778,12.346c-32.881,14.004-54.631,46.548-54.631,82.611
			c0,26.146,11.476,50.935,31.066,67.901l-9.62,10.742c-22.244-19.45-34.882-47.135-34.882-76.929
			c0-7.929,0.909-15.823,2.703-23.463c0.956-4.072-1.57-8.148-5.643-9.105c-4.066-0.958-8.148,1.57-9.105,5.642
			c-2.059,8.773-3.104,17.831-3.104,26.925c0,34.153,14.462,65.892,39.923,88.212l-3.562,3.978
			c-8.043,8.984-7.279,22.836,1.703,30.88c2.226,1.994,4.492,3.928,6.789,5.813l38.493,34.473
			c38.255,34.259,86.773,52.765,137.725,52.762c3.865,0,7.752-0.107,11.642-0.321c55.163-3.04,105.842-27.381,142.698-68.536
			C451.476,353.52,470.1,300.474,467.06,245.31z M139.826,142.911c0.268-0.691,0.435-1.424,0.491-2.18
			c10.692-45.035,51.246-78.638,99.506-78.638c23.467,0,45.931,7.983,64.055,22.575l-7.022,7.841
			c-12.401-9.943-27.084-16.371-42.905-18.697c-2.184-0.319-4.388,0.323-6.052,1.762c-1.666,1.439-2.623,3.531-2.623,5.732v51.464
			c0,1.288,0.327,2.531,0.925,3.627l-14.26,5.668c-1.556,0.618-3.037,1.366-4.459,2.197c0.924-1.242,1.943-2.378,3.059-3.371
			c1.614-1.437,2.537-3.496,2.537-5.657V81.858c0-2.254-1.004-4.391-2.739-5.83c-1.736-1.439-4.019-2.031-6.236-1.613
			c-42.364,7.97-73.113,45.076-73.113,88.231c0,5.856,0.57,11.653,1.683,17.337c-0.027,0.001-0.053,0-0.08,0.001l-13.769,0.485
			c-0.838-5.307-1.268-10.701-1.268-16.108C137.556,157.006,138.343,149.831,139.826,142.911z M270.021,122.474l-7.528,8.406
			c-0.671-0.664-1.359-1.302-2.07-1.903V90.602c9.567,2.59,18.474,7.061,26.315,13.205l-6.39,7.135
			c-1.098-0.567-2.341-0.893-3.663-0.893c-4.419,0-8.001,3.582-8.001,8.001C268.684,119.686,269.177,121.206,270.021,122.474z
			 M183.314,166.07c-3.615,2.345-5.205,6.998-3.555,11.156l4.767,11.992c-0.494,0.324-0.985,0.652-1.466,0.994
			c-4.276-3.486-9.115-6.147-14.287-7.884c-1.742-6.385-2.636-12.985-2.636-19.682c0-32.748,21.298-61.306,51.792-71.074v40.502
			c-5.956,6.474-9.833,15.354-10.94,24.927c-1.853,0.386-3.685,0.929-5.478,1.641l-3.995,1.588c-0.425-4.02-3.823-7.152-7.955-7.152
			c-4.419,0-8.001,3.582-8.001,8.001C181.561,162.968,182.22,164.701,183.314,166.07z M207.106,172.719
			c3.539-1.407,7.35-1.637,11.023-0.665c3.877,1.025,7.891-1.153,9.137-4.97c1.638-5.011,5.381-9,10.269-10.943l11.089-4.408
			l3.115,7.839c1.951,4.908,1.611,10.385-0.93,15.024c-0.999,1.823-1.205,3.976-0.569,5.956c0.635,1.979,2.057,3.61,3.93,4.51
			c4.007,1.926,7.118,5.261,8.76,9.391l3.115,7.84l-11.088,4.407c-4.75,1.888-9.926,1.636-14.381-0.594l-0.628-17.86
			c-0.07-2.007-0.936-3.905-2.405-5.274c-1.469-1.37-3.433-2.101-5.43-2.029l-24.184,0.851c0,0,0,0-0.001,0
			c-3.243,0.114-6.423,0.571-9.519,1.346l-2.391-6.014L207.106,172.719z M153.125,195.122c9.146-0.315,17.862,3.42,23.944,10.264
			c1.381,1.554,3.339,2.472,5.417,2.539c2.113,0.063,4.094-0.723,5.571-2.185c2.519-2.492,5.417-4.509,8.613-5.996
			c3.702-1.721,7.67-2.669,11.793-2.814l16.615-0.585l0.501,14.245c0.001,0.04,0.002,0.081,0.004,0.121l0.265,7.529
			c0.555,15.783-11.283,29.585-26.952,31.424c-3.916,0.459-6.824,3.847-6.686,7.788l0.055,1.574
			c0.593,16.847-12.631,31.035-29.477,31.628l-16.614,0.584l-0.3-8.521c0.291-1.278,0.239-2.61-0.136-3.863l-0.335-9.51
			c-0.231-6.59,1.614-12.938,5.337-18.358c2.274-3.31,1.569-7.819-1.606-10.277c-7.213-5.586-11.535-14.008-11.854-23.108
			l-0.77-21.895L153.125,195.122z M82.939,245.702c0-28.117,15.906-53.661,40.43-66.332c0.19,1.491,0.402,2.978,0.648,4.459
			c-0.04,0.042-0.084,0.078-0.124,0.121c-1.837,1.971-2.796,4.539-2.7,7.229l0.351,9.965c-1.322-0.966-2.946-1.542-4.709-1.542
			c-4.419,0-8.001,3.582-8.001,8.001s3.582,8.001,8.001,8.001c1.963,0,3.759-0.71,5.151-1.883l0.155,4.414
			c0.398,11.356,4.96,22.003,12.723,30.069c-3.288,6.7-4.868,14.081-4.601,21.676l0.293,8.327l-5.757,6.428
			c0.02-0.233,0.036-0.468,0.036-0.707c0-4.419-3.582-8.001-8.001-8.001s-8.001,3.582-8.001,8.001s3.582,8.001,8.001,8.001
			c0.538,0,1.064-0.055,1.573-0.157l-9.448,10.55C92.555,288.209,82.939,267.522,82.939,245.702z M403.335,384.57
			c-34.159,38.142-81.124,60.7-132.248,63.517c-44.643,2.458-87.808-10.399-123.435-36.454c20.82,7.054,42.754,10.71,65.017,10.71
			c10.265,0,20.607-0.776,30.931-2.35c4.135-0.631,6.976-4.494,6.346-8.629s-4.499-6.975-8.628-6.346
			c-53.062,8.091-106.381-6.619-147.611-40.414l-4.601-4.121c-3.549-3.178-3.851-8.652-0.673-12.202l26.579-29.679
			c0.474-0.402,0.907-0.868,1.283-1.399c0.026-0.037,0.046-0.076,0.072-0.113l15.428-17.227c0.534,1.504,1.421,2.871,2.623,3.991
			c1.881,1.754,4.307,2.708,6.865,2.708c0.121,0,0.243-0.002,0.364-0.006l21.676-0.763c11.354-0.4,21.599-4.936,29.357-12.097
			c3.206,0.325,6.425-1.31,7.959-4.361c0.982-1.953,1.085-4.117,0.464-6.045c2.8-4.738,4.767-10.014,5.707-15.62
			c3.75,1.341,7.998-0.289,9.832-3.939c0.722-1.437,0.965-2.987,0.799-4.474c2.552-1.428,4.95-3.093,7.168-4.963
			c0.041,0.074,0.073,0.151,0.115,0.224l8.725,15.113c0,0,0,0.001,0.001,0.001c2.123,3.676,5.986,5.732,9.954,5.732
			c1.945,0,3.914-0.495,5.716-1.535l15.114-8.726c5.476-3.163,7.36-10.192,4.198-15.67l-8.725-15.111
			c-1.532-2.655-4.006-4.553-6.966-5.347c-2.962-0.792-6.051-0.387-8.705,1.146l-5.187,2.995c1.125-3.498,1.828-7.166,2.069-10.936
			c2.485,0.583,5.031,0.89,7.584,0.89c4.082,0,8.178-0.755,12.056-2.296l18.126-7.205c2.82-1.121,4.585-3.748,4.756-6.589
			c0.143-0.225,0.277-0.46,0.399-0.703c1.984-3.948,0.392-8.758-3.556-10.742c-0.246-0.124-0.496-0.233-0.748-0.33l-2.524-6.35
			c-2.153-5.414-5.665-10.094-10.161-13.636c2.016-6.936,1.694-14.387-1.031-21.243l-1.037-2.61l67.886-75.804
			c1.54-1.719,3.658-2.737,5.963-2.863c1.675-0.097,3.3,0.296,4.724,1.106c37.297,33.502,59.354,79.506,62.113,129.575
			c0.683,12.396,0.159,24.673-1.517,36.7c-0.123,0.54-0.221,1.09-0.265,1.658l-0.019,0.252c-4.313,28.784-15.26,56.074-32.195,80.03
			c-1.263,1.108-2.278,2.494-2.959,4.068c-3.367,4.504-6.939,8.889-10.736,13.129l-4.791,5.35
			c-21.371,23.864-48.572,41.958-78.666,52.327c-3.955,1.363-6.056,5.674-4.693,9.628c1.081,3.138,4.018,5.108,7.161,5.108
			c0.818,0,1.65-0.134,2.467-0.415c1.059-0.365,2.106-0.763,3.158-1.146l-1.212,15.868c0,0.001,0,0.001,0,0.001
			c-0.481,6.307,4.259,11.83,10.565,12.311l17.399,1.329c0.299,0.023,0.597,0.035,0.893,0.035c2.736,0,5.354-0.966,7.453-2.767
			c2.325-1.996,3.734-4.778,3.967-7.832l0.602-7.883c1.386,1.538,3.387,2.51,5.621,2.51c4.183,0,7.574-3.391,7.574-7.574
			c0-4.183-3.391-7.574-7.574-7.574c-1.858,0-3.558,0.672-4.876,1.783c-0.229-5.732-4.728-10.527-10.583-10.973l-4.7-0.359
			c21.274-11.22,40.552-26.209,56.727-44.27l2.598-2.9c1.452,4.187,5.273,7.338,9.965,7.696l17.399,1.329
			c0.299,0.023,0.597,0.035,0.893,0.035c2.736,0,5.354-0.966,7.452-2.767c2.326-1.996,3.735-4.777,3.968-7.832l1.327-17.398
			c0.235-3.056-0.735-6.02-2.731-8.347c-1.996-2.325-4.778-3.735-7.832-3.967l-6.406-0.489c9.464-15.409,16.658-31.774,21.618-48.63
			c0.134,0.015,0.264,0.041,0.4,0.051l17.399,1.328c0.299,0.023,0.597,0.035,0.893,0.035c2.736,0,5.353-0.966,7.452-2.766
			c2.325-1.996,3.735-4.778,3.968-7.833l1.328-17.401c0.233-3.055-0.738-6.018-2.733-8.343c-1.995-2.326-4.777-3.735-7.832-3.968
			l-13.356-1.02c3.095-35.789-3.262-72.151-18.845-105.032c30.387,32.689,48.258,74.565,50.745,119.685
			C454.754,297.268,437.493,346.428,403.335,384.57z M239.677,250.127l8.746-5.049l5.049,8.746l-8.747,5.049L239.677,250.127z
			 M382.418,334.573l10.069,0.769l-0.769,10.069l-10.069-0.769L382.418,334.573z M307.42,414.124l-0.769,10.069l-10.069-0.769
			l0.769-10.069L307.42,414.124z M417.738,256.625l0.769-10.069l10.07,0.769l-0.769,10.069L417.738,256.625z"/>
	</g>
</g>
<g>
	<g>
		<path d="M331.375,185.294h-17.452c-6.325,0-11.471,5.146-11.471,11.472v17.451c0,6.325,5.146,11.471,11.471,11.471h17.452
			c6.325,0,11.471-5.146,11.471-11.471v-17.451C342.846,190.441,337.7,185.294,331.375,185.294z M327.699,210.541H317.6v-10.099
			h10.099V210.541z"/>
	</g>
</g>
<g>
	<g>
		<path d="M276.704,323.969l-17.399-1.328c-6.308-0.485-11.828,4.255-12.314,10.565l-1.328,17.401
			c-0.481,6.306,4.258,11.828,10.565,12.311l17.401,1.329c0.295,0.021,0.589,0.033,0.881,0.033c5.93,0,10.969-4.587,11.431-10.599
			l1.328-17.401C287.749,329.974,283.011,324.451,276.704,323.969z M271.118,348.862l-10.07-0.769l0.769-10.069l10.07,0.769
			L271.118,348.862z"/>
	</g>
</g>
<g>
	<g>
		<path d="M356.418,270.833l-11.074-13.486c-1.945-2.368-4.694-3.838-7.744-4.138c-3.049-0.305-6.033,0.606-8.401,2.55
			l-13.488,11.073c-4.889,4.014-5.601,11.256-1.587,16.146l11.074,13.487c1.945,2.369,4.695,3.838,7.745,4.138
			c0.383,0.037,0.763,0.056,1.142,0.056c2.645,0,5.187-0.906,7.258-2.607l13.489-11.074
			C359.72,282.964,360.431,275.722,356.418,270.833z M334.574,284.013l-6.408-7.805l7.805-6.408l6.408,7.805L334.574,284.013z"/>
	</g>
</g>
<g>
	<g>
		<circle cx="197.097" cy="307.916" r="7.574"/>
	</g>
</g>
<g>
	<g>
		<circle cx="284.255" cy="291.927" r="7.574"/>
	</g>
</g>
<g>
	<g>
		<circle cx="359.644" cy="404.455" r="7.574"/>
	</g>
</g>
<g>
	<g>
		<circle cx="389.064" cy="378.635" r="7.574"/>
	</g>
</g>
<g>
	<g>
		<circle cx="242.366" cy="431.215" r="7.574"/>
	</g>
</g>
<g>
	<g>
		<circle cx="359.644" cy="378.635" r="7.574"/>
	</g>
</g>
<g>
	<g>
		<circle cx="420.573" cy="285.747" r="7.574"/>
	</g>
</g>
<g>
	<g>
		<circle cx="435.723" cy="212.558" r="7.574"/>
	</g>
</g>
<g>
	<g>
		<circle cx="420.573" cy="323.056" r="7.574"/>
	</g>
</g>
<g>
	<g>
		<circle cx="372.114" cy="235.707" r="7.574"/>
	</g>
</g>
<g>
	<g>
		<circle cx="322.645" cy="164.918" r="7.574"/>
	</g>
</g>
<g>
</g>
<g>
</g>
<g>
</g>
<g>
</g>
<g>
</g>
<g>
</g>
<g>
</g>
<g>
</g>
<g>
</g>
<g>
</g>
<g>
</g>
<g>
</g>
<g>
</g>
<g>
</g>
<g>
</g>
</svg>
