<?xml version="1.0" encoding="UTF-8"?>
<!DOCTYPE svg PUBLIC "-//W3C//DTD SVG 1.1//EN" "http://www.w3.org/Graphics/SVG/1.1/DTD/svg11.dtd">
<!-- Creator: CorelDRAW X7 -->
<svg xmlns="http://www.w3.org/2000/svg" xml:space="preserve" width="30mm" height="30mm" version="1.1" style="shape-rendering:geometricPrecision; text-rendering:geometricPrecision; image-rendering:optimizeQuality; fill-rule:evenodd; clip-rule:evenodd"
viewBox="0 0 2448 2448"
 xmlns:xlink="http://www.w3.org/1999/xlink">
 <defs>
  <style type="text/css">
   <![CDATA[
    .fil0 {fill:black}
   ]]>
  </style>
 </defs>
 <g id="Warstwa_x0020_1">
  <metadata id="CorelCorpID_0Corel-Layer"/>
  <g id="_2445218684352">
   <path class="fil0" d="M712 1061l-329 0c-76,0 -62,-81 -15,-81l364 0c48,0 73,81 -20,81zm-468 -43c0,72 57,125 115,125l387 0c80,0 94,-82 115,-82l157 0 0 1306 -937 0 0 -2286 937 0 0 894 -172 0c-12,-54 -70,-81 -138,-81l-316 0c-83,0 -148,42 -148,124zm1305 -368l-119 0 0 -569 937 0 0 2286 -937 0 0 -1631 119 0c-6,22 -25,38 -35,61 -23,52 43,88 79,31 106,-164 106,-106 2,-267 -40,-62 -97,-20 -84,22 7,25 32,42 38,67zm-1549 -573l0 2295c0,41 35,76 77,76l946 0c52,0 81,-43 81,-96l0 -1291c59,0 84,6 129,-39 83,-84 -16,-286 72,-286l39 0 0 1616c0,53 29,96 81,96l947 0c41,0 76,-35 76,-76l0 -2295c0,-42 -35,-77 -76,-77l-957 0c-42,0 -71,49 -71,96l0 554c-81,0 -145,19 -161,107 -14,75 22,218 -31,218l-48 0 0 -879c0,-53 -29,-96 -81,-96l-946 0c-42,0 -77,35 -77,77z"/>
   <path class="fil0" d="M1592 1061l607 0 0 569 -607 0 0 -569zm-86 15l0 540c0,57 34,101 91,101l593 0c52,0 95,-32 95,-82l0 -583c0,-24 -19,-49 -35,-60 -21,-14 -47,-17 -79,-17l-545 0c-70,0 -120,24 -120,101z"/>
   <path class="fil0" d="M249 249l607 0 0 483 -607 0 0 -483zm-86 -15l0 502c0,44 37,82 81,82l612 0c56,0 86,-44 86,-101l0 -449c0,-29 -5,-56 -18,-73 -13,-16 -35,-32 -63,-32l-627 0c-32,0 -71,39 -71,71z"/>
   <path class="fil0" d="M249 1387l607 0 0 487 -607 0 0 -487zm-86 -10l0 502c0,50 39,81 90,81l603 0c55,0 86,-44 86,-100l0 -450c0,-55 -24,-105 -81,-105l-627 0c-33,0 -71,39 -71,72z"/>
   <path class="fil0" d="M736 2199l-373 0c-48,0 -45,-76 5,-76l364 0c51,0 59,76 4,76zm-492 -38c0,37 13,66 36,88 18,18 46,36 79,36l377 0c68,0 120,-56 120,-109 0,-52 -1,-69 -44,-109 -22,-20 -55,-30 -95,-30l-334 0c-78,0 -139,48 -139,124z"/>
   <path class="fil0" d="M1554 1879l688 0c57,0 57,-86 0,-86l-688 0c-60,0 -60,86 0,86z"/>
   <path class="fil0" d="M1564 411l669 0c76,0 62,-86 9,-86l-693 0c-52,0 -61,86 15,86z"/>
   <path class="fil0" d="M1549 2204l693 0c57,0 64,-86 -14,-86l-655 0c-93,0 -72,86 -24,86z"/>
   <path class="fil0" d="M1755 521c0,26 6,53 43,53l435 0c76,0 62,-86 9,-86l-444 0c-20,0 -43,16 -43,33z"/>
   <path class="fil0" d="M1755 846c0,26 3,53 43,53l444 0c53,0 67,-86 -9,-86l-426 0c-23,0 -52,13 -52,33z"/>
   <path class="fil0" d="M1836 201c0,38 26,48 67,48l316 0c100,0 68,-86 33,-86l-378 0c-23,0 -38,15 -38,38z"/>
   <path class="fil0" d="M1559 2042l315 0c55,0 65,-86 -9,-86l-301 0c-71,0 -76,86 -5,86z"/>
   <path class="fil0" d="M1999 1999c0,23 19,43 43,43l200 0c53,0 67,-86 -9,-86l-182 0c-30,0 -52,13 -52,43z"/>
   <path class="fil0" d="M1999 693c0,24 19,43 43,43l200 0c53,0 67,-86 -9,-86l-182 0c-30,0 -52,14 -52,43z"/>
   <path class="fil0" d="M1573 249c103,0 182,17 182,-53 0,-13 -20,-33 -34,-33l-172 0c-47,0 -70,86 24,86z"/>
   <path class="fil0" d="M1755 684c0,64 43,52 119,52 58,0 58,-86 0,-86 -27,0 -119,-10 -119,34z"/>
  </g>
 </g>
</svg>
