<svg id="Capa_1" enable-background="new 0 0 512 512" height="512" viewBox="0 0 512 512" width="512" xmlns="http://www.w3.org/2000/svg"><g><circle cx="354.337" cy="269.806" r="10"/><path d="m453.796 269.806c0-5.534-4.486-10.02-10.02-10.02h-44.282c-5.534 0-10.02 4.486-10.02 10.02s4.486 10.02 10.02 10.02h33.983c-5.212 93.372-82.824 167.737-177.477 167.737s-172.265-74.365-177.478-167.738h230.657c5.534 0 10.02-4.486 10.02-10.02s-4.486-10.02-10.02-10.02h-35.656c.835-5.818 3.013-9.351 5.799-13.842 4.091-6.595 9.183-14.804 9.183-30.038 0-15.233-5.092-23.442-9.183-30.038-3.584-5.777-6.173-9.951-6.173-19.474 0-9.524 2.59-13.7 6.173-19.477 4.091-6.596 9.183-14.806 9.183-30.04s-5.091-23.444-9.183-30.04c-1.583-2.552-2.968-4.795-4.026-7.321 0 0 158.71 25.122 159.231 25.122 4.842 0 9.101-3.518 9.884-8.452.867-5.465-2.862-10.598-8.327-11.465l-161.61-25.622 2.466-16.732 159.869-22.423c5.48-.769 9.299-5.835 8.53-11.315s-5.833-9.296-11.314-8.531l-283.877 39.817c-5.016.704-8.81 5.245-8.621 10.304.074 15.633 4.554 24.153 8.517 31.669 3.47 6.582 6.211 11.781 6.211 22.705 0 10.737-2.803 15.631-6.353 21.826-4.011 7.002-9.003 15.717-9.003 31.787 0 16.068 4.992 24.782 9.004 31.784 3.549 6.195 6.352 11.088 6.352 21.822 0 10.735-2.803 15.628-6.352 21.823-3.516 6.136-7.783 13.589-8.785 26.152h-72.895c-5.534 0-10.02 4.486-10.02 10.02 0 75.226 42.215 140.772 104.196 174.207v57.967c0 5.534 4.486 10.02 10.02 10.02h167.16c5.534 0 10.02-4.486 10.02-10.02v-57.967c61.982-33.436 104.197-98.982 104.197-174.207zm-200.686-202.446c0 15.235 5.091 23.444 9.183 30.041 3.584 5.778 6.173 9.953 6.173 19.477s-2.59 13.7-6.173 19.477c-4.091 6.596-9.183 14.806-9.183 30.04 0 15.233 5.092 23.441 9.183 30.037 3.584 5.777 6.173 9.952 6.173 19.474 0 9.523-2.59 13.697-6.173 19.475-3.555 5.731-7.861 12.687-8.93 24.405h-37.228c.844-6.33 3.137-10.166 5.894-14.751 4.059-6.752 9.111-15.156 9.111-30.708s-5.051-23.955-9.111-30.707c-3.49-5.805-6.246-10.39-6.246-20.383 0-9.995 2.756-14.581 6.247-20.387 4.059-6.753 9.11-15.157 9.11-30.711s-5.051-23.957-9.11-30.71c-3.49-5.806-6.247-10.392-6.247-20.387v-10.098l40.475-5.677c-.001 0-3.148 21.604-3.148 22.093zm-85.819 112.667c-3.549-6.195-6.352-11.088-6.352-21.822 0-10.737 2.803-15.631 6.353-21.826 4.011-7.002 9.003-15.717 9.003-31.787 0-15.883-4.528-24.473-8.524-32.051-2.409-4.57-4.465-8.477-5.498-14.092l33.47-4.694v7.287c0 15.554 5.051 23.958 9.11 30.711 3.49 5.806 6.247 10.392 6.247 20.386 0 9.995-2.756 14.581-6.247 20.387-4.059 6.753-9.11 15.157-9.11 30.711 0 15.552 5.051 23.955 9.111 30.707 3.49 5.805 6.246 10.39 6.246 20.383s-2.756 14.579-6.246 20.384c-3.539 5.887-7.83 13.033-8.872 25.076h-34.739c.814-7.044 3.188-11.197 6.049-16.19 4.012-7.002 9.004-15.716 9.004-31.785-.001-16.069-4.994-24.783-9.005-31.785zm162.27 311.934h-147.122v-38.553c22.751 9.148 47.576 14.194 73.561 14.194s50.81-5.046 73.561-14.194z"/><path d="m169.769 306.715c-5.534 0-10.02 4.486-10.02 10.02s4.486 10.02 10.02 10.02h172.463c5.534 0 10.02-4.486 10.02-10.02s-4.486-10.02-10.02-10.02z"/></g></svg>