<?xml version="1.0" encoding="UTF-8"?>
<!DOCTYPE svg PUBLIC "-//W3C//DTD SVG 1.1//EN" "http://www.w3.org/Graphics/SVG/1.1/DTD/svg11.dtd">
<!-- Creator: CorelDRAW X7 -->
<svg xmlns="http://www.w3.org/2000/svg" xml:space="preserve" width="33.9823mm" height="30mm" version="1.1" style="shape-rendering:geometricPrecision; text-rendering:geometricPrecision; image-rendering:optimizeQuality; fill-rule:evenodd; clip-rule:evenodd"
viewBox="0 0 3523 3110"
 xmlns:xlink="http://www.w3.org/1999/xlink">
 <defs>
  <style type="text/css">
   <![CDATA[
    .fil0 {fill:black}
   ]]>
  </style>
 </defs>
 <g id="Warstwa_x0020_1">
  <metadata id="CorelCorpID_0Corel-Layer"/>
  <g id="_2445219882688">
   <path class="fil0" d="M2682 2262c33,10 253,243 282,272 43,43 257,251 277,280 -7,25 -170,186 -186,186 -21,0 -59,-49 -74,-64 -130,-129 -390,-379 -483,-487l184 -187zm-358 -93l76 -79 151 148 -76 79 -151 -148zm-1278 -628c0,-591 661,-920 1125,-610 131,88 286,253 285,417l0 352c0,85 13,72 -23,142 -119,237 -347,422 -630,422 -217,0 -350,-47 -505,-177 -158,-133 -252,-330 -252,-546zm-943 -1397c0,-18 3,-18 7,-34l454 0 0 241 -461 0 0 -207zm-103 -20l0 2518c0,68 63,124 131,124l1906 0c22,0 48,-32 48,-55 0,-72 -125,-55 -200,-55l-1679 0c-38,0 -103,12 -103,-28l0 -2167 3316 0 0 2167c0,44 -83,28 -172,28 -22,0 -251,-241 -270,-260 -45,-45 -85,-85 -130,-131 -119,-118 -109,-123 -219,-98l-160 -163c8,-24 38,-66 50,-91 16,-32 26,-65 41,-97 290,0 241,65 241,-536 0,-80 -110,-80 -110,0l0 426 -124 0 0 -894 124 0 0 213c0,80 110,80 110,0l0 -234c0,-110 -124,-89 -227,-89 -98,0 -118,29 -117,117 1,80 0,160 0,241 -4,-5 -8,-10 -12,-15 -80,-99 -130,-153 -242,-220 -166,-99 -278,-116 -475,-116 -128,0 -220,39 -314,78l-121 72c-199,147 -349,381 -349,634 0,167 8,265 82,413 22,44 47,86 76,124 17,22 26,35 46,56 54,58 82,92 160,143 212,140 471,187 722,103 37,-13 73,-25 109,-43l98 -53 164 160 -6 67c0,64 119,144 152,193 -65,0 -129,0 -193,0 -61,0 -138,-6 -138,55 0,61 71,55 97,55l310 -1c52,0 38,1 97,61 54,53 102,102 155,155 58,58 103,129 195,129 59,0 172,-136 232,-194 14,-14 22,-20 32,-37 21,-39 22,-76 4,-113 59,0 90,2 128,-23 30,-21 58,-53 58,-101l0 -2518c0,-65 -60,-124 -124,-124l-2243 0c-38,0 -55,30 -55,55 0,79 161,55 241,55l2071 0c14,63 6,172 6,241l-2752 0 0 -241 214 0c131,0 96,-110 34,-110l-791 0c-65,0 -124,59 -124,124z"/>
   <path class="fil0" d="M2140 1280l124 0 0 426 -124 0 0 -426zm-110 -35l0 489c0,85 61,82 144,82 -63,95 -208,207 -364,207l-76 0c-121,0 -256,-81 -313,-149 -21,-25 -30,-32 -49,-60 -18,-27 -28,-44 -42,-75 -175,-391 204,-819 634,-648 42,17 106,54 128,86 -31,7 -62,31 -62,68zm-853 296c0,33 9,96 16,128 25,111 80,205 156,284l77 68c214,159 511,146 720,-20 46,-36 86,-78 119,-128 9,-14 14,-24 24,-39 30,-47 85,-14 85,-107l0 -461c0,-118 -104,-80 -132,-95 -20,-10 -35,-42 -52,-58 -56,-51 -140,-106 -213,-132 -428,-149 -800,184 -800,560z"/>
   <path class="fil0" d="M2993 1046l124 0 0 660 -124 0 0 -660zm-110 -21l0 716c0,102 148,75 268,75 40,0 76,-35 76,-75l0 -716c0,-112 -114,-82 -275,-82 -43,0 -69,38 -69,82z"/>
   <path class="fil0" d="M358 729l234 0 0 234 -234 0 0 -234zm-110 -34l0 303c0,48 39,75 89,75l275 0c58,0 90,-32 90,-89l0 -289c0,-40 -36,-76 -76,-76l-303 0c-40,0 -75,36 -75,76z"/>
   <path class="fil0" d="M358 1280l234 0 0 241 -234 0 0 -241zm-110 -21c0,76 -13,296 14,336 8,11 25,29 41,29l330 0c43,0 69,-38 69,-83l0 -289c0,-36 -31,-75 -69,-75l-317 0c-43,0 -68,38 -68,82z"/>
   <path class="fil0" d="M1706 1527l131 0 0 179 -131 0 0 -179zm-103 -41l0 262c0,93 156,68 255,68 55,0 89,-33 89,-89l0 -220c0,-117 -128,-90 -268,-90 -36,0 -76,31 -76,69z"/>
   <path class="fil0" d="M248 2037c0,36 17,61 55,61l474 0c72,0 86,-110 -20,-110 -73,0 -440,-9 -479,11 -11,5 -30,27 -30,38z"/>
   <path class="fil0" d="M248 2257c0,32 28,55 62,55l467 0c69,0 87,-110 -13,-110l-454 0c-31,0 -62,28 -62,55z"/>
   <path class="fil0" d="M248 1830c0,33 21,55 55,55l488 0c55,0 55,-103 0,-103l-488 0c-30,0 -55,21 -55,48z"/>
   <path class="fil0" d="M248 2470c0,35 37,55 75,55l241 0c110,0 79,-110 28,-110l-289 0c-33,0 -55,28 -55,55z"/>
   <path class="fil0" d="M3014 275c89,0 213,20 213,-48 0,-78 -93,-55 -227,-55 -50,0 -58,103 14,103z"/>
  </g>
 </g>
</svg>
