<?xml version="1.0" encoding="UTF-8"?>
<!DOCTYPE svg PUBLIC "-//W3C//DTD SVG 1.1//EN" "http://www.w3.org/Graphics/SVG/1.1/DTD/svg11.dtd">
<!-- Creator: CorelDRAW X7 -->
<svg xmlns="http://www.w3.org/2000/svg" xml:space="preserve" width="32.9975mm" height="30mm" version="1.1" style="shape-rendering:geometricPrecision; text-rendering:geometricPrecision; image-rendering:optimizeQuality; fill-rule:evenodd; clip-rule:evenodd"
viewBox="0 0 813 739"
 xmlns:xlink="http://www.w3.org/1999/xlink">
 <defs>
  <style type="text/css">
   <![CDATA[
    .fil0 {fill:black}
   ]]>
  </style>
 </defs>
 <g id="Warstwa_x0020_1">
  <metadata id="CorelCorpID_0Corel-Layer"/>
  <g id="_2445218689728">
   <path class="fil0" d="M588 24l49 0c3,0 5,1 5,5l0 65 -54 0 0 -70zm-318 47l294 0 0 23 -294 0 0 -23zm-51 7c0,-46 -3,-39 11,-47 5,-3 8,-4 15,-6l0 67c-7,-1 -10,-2 -15,-5 -7,-4 -11,-5 -11,-9zm-40 -21c6,-1 10,-4 15,-6l0 16c-5,-3 -9,-5 -15,-7l0 -3zm91 -33l294 0 0 22 -294 0 0 -22zm-270 40l0 655c0,6 4,13 8,15 10,8 87,4 108,4 18,0 20,-25 0,-25l-92 0 0 -643 122 0c5,0 15,8 24,13 4,2 8,4 13,6 16,10 47,29 65,29l394 0c28,0 23,-35 23,-48 14,0 42,4 42,-10 0,-18 -17,-14 -42,-14l0 -24c0,-10 -11,-22 -22,-22l-394 0c-20,0 -60,24 -80,36 -5,3 -8,4 -12,7 -7,5 -6,3 -17,3l-118 0c-7,0 -10,1 -15,4 -3,3 -7,7 -7,14z"/>
   <path class="fil0" d="M737 59c0,16 27,11 52,11l0 643 -613 0c-20,0 -17,25 0,25l612 0c13,0 25,-5 25,-19l0 -655c0,-24 -39,-18 -63,-18 -9,0 -13,7 -13,13z"/>
   <path class="fil0" d="M103 580c0,-27 2,-43 23,-63 23,-24 59,-30 87,-16 48,24 56,82 30,117 -6,9 -9,11 -18,18 -53,39 -122,-5 -122,-56zm-25 -10c0,18 2,30 9,45 4,10 13,22 20,29 14,16 43,31 66,31 27,0 45,-3 68,-20 80,-60 37,-187 -62,-187 -54,0 -101,47 -101,102z"/>
   <path class="fil0" d="M556 576c0,-33 13,-59 43,-74 57,-29 111,21 111,62 0,26 -3,46 -24,66 -7,6 -14,10 -23,14 -18,9 -42,9 -61,0 -17,-8 -30,-19 -39,-37 -4,-8 -7,-19 -7,-31zm-26 -3c0,55 49,102 94,102 22,0 33,0 54,-10 36,-18 57,-53 57,-95 0,-83 -104,-140 -175,-70 -16,16 -30,41 -30,73z"/>
   <path class="fil0" d="M400 675c30,0 53,-5 73,-24 12,-12 32,-36 32,-52 0,-10 -16,-18 -23,-6 -7,11 -11,35 -40,49 -23,11 -43,11 -67,2 -24,-10 -46,-39 -46,-72 0,-41 34,-78 74,-78 73,0 70,60 88,60 29,0 2,-46 -21,-63 -44,-33 -99,-29 -135,7 -68,68 -13,177 65,177z"/>
   <path class="fil0" d="M139 210c-10,-6 -7,-11 -21,-11 -5,0 -10,6 -10,11 0,8 20,28 29,28 16,0 21,-16 33,-24l0 37 -67 0 0 -68 62 0 -26 27zm-61 -35l0 84c0,8 8,16 16,16 116,0 102,13 101,-72 0,-16 -1,-12 3,-18 11,-15 1,-18 -10,-23 -15,-8 -63,-5 -86,-5 -6,0 -14,2 -17,4 -4,2 -7,9 -7,14z"/>
   <path class="fil0" d="M453 183l66 0 0 68 -66 0 0 -68zm-26 -8l0 81c0,10 6,19 16,19l86 0c10,0 16,-10 16,-21l0 -75c0,-15 -10,-22 -26,-22 -18,0 -75,-3 -85,4 -3,3 -7,8 -7,14z"/>
   <path class="fil0" d="M453 334l66 0 0 68 -66 0 0 -68zm-26 -5l0 81c0,14 15,17 27,17l65 0c16,0 26,-6 26,-22l0 -75c0,-10 -6,-20 -16,-20l-86 0c-10,0 -16,8 -16,19z"/>
   <path class="fil0" d="M103 334l67 0 0 68 -67 0 0 -68zm-25 -8l0 84c0,14 13,17 27,17l65 0c18,0 25,-7 25,-25l0 -68c0,-13 -4,-24 -16,-24l-85 0c-8,0 -16,8 -16,16z"/>
   <path class="fil0" d="M219 195c0,10 5,15 16,15l137 0c19,0 18,-26 0,-26l-139 0c-6,0 -14,6 -14,11z"/>
   <path class="fil0" d="M569 197c0,7 6,13 14,13l140 0c17,0 17,-26 -2,-26l-138 0c-7,0 -14,7 -14,13z"/>
   <path class="fil0" d="M219 348c0,7 5,12 13,12l141 0c18,0 14,-23 3,-23l-147 0c-5,0 -10,6 -10,11z"/>
   <path class="fil0" d="M569 348c0,7 5,12 12,12l142 0c18,0 14,-23 3,-23l-148 0c-4,0 -9,6 -9,11z"/>
   <path class="fil0" d="M592 611c0,20 17,17 21,12 8,-9 -2,-21 22,-21 15,0 14,16 17,20 3,5 21,12 21,-11 0,-30 -44,-46 -68,-25 -6,6 -13,14 -13,25z"/>
   <path class="fil0" d="M140 591c0,57 81,51 81,3 0,-7 -5,-13 -11,-13 -22,0 -2,26 -32,26 -20,0 -9,-26 -26,-26 -5,0 -12,5 -12,10z"/>
   <path class="fil0" d="M219 387c0,9 8,13 14,13l75 0c23,0 19,-25 3,-25l-79 0c-8,0 -13,5 -13,12z"/>
   <path class="fil0" d="M569 387c0,7 7,13 14,13l74 0c25,0 20,-25 4,-25l-78 0c-8,0 -14,5 -14,12z"/>
   <path class="fil0" d="M569 235c0,6 4,13 9,13l84 0c17,0 16,-24 0,-24l-81 0c-7,0 -12,5 -12,11z"/>
   <path class="fil0" d="M219 235c0,6 5,13 10,13l84 0c17,0 12,-24 1,-24l-82 0c-7,0 -13,5 -13,11z"/>
   <path class="fil0" d="M368 599c0,22 19,16 61,16 22,0 19,-26 3,-26l-51 0c-6,0 -13,5 -13,10z"/>
   <path class="fil0" d="M356 549c0,17 1,21 16,21 12,0 13,-33 -4,-33 -7,0 -12,5 -12,12z"/>
   <path class="fil0" d="M129 554c0,23 25,18 25,7 0,-8 2,-24 -11,-24 -10,0 -14,8 -14,17z"/>
   <path class="fil0" d="M432 551c0,29 25,21 25,6 0,-6 1,-20 -11,-20 -8,0 -14,5 -14,14z"/>
   <path class="fil0" d="M659 549c0,9 -2,21 13,21 18,0 15,-33 0,-33 -8,0 -13,5 -13,12z"/>
   <path class="fil0" d="M206 549c0,9 -1,13 4,18 5,5 20,5 20,-8 0,-6 3,-22 -11,-22 -8,0 -13,5 -13,12z"/>
   <path class="fil0" d="M583 546c0,15 -2,24 13,24 17,0 14,-33 0,-33 -6,0 -13,4 -13,9z"/>
  </g>
 </g>
</svg>
