<?xml version="1.0" encoding="UTF-8"?>
<!DOCTYPE svg PUBLIC "-//W3C//DTD SVG 1.1//EN" "http://www.w3.org/Graphics/SVG/1.1/DTD/svg11.dtd">
<!-- Creator: CorelDRAW X7 -->
<svg xmlns="http://www.w3.org/2000/svg" xml:space="preserve" width="12.523mm" height="12.5257mm" version="1.1" style="shape-rendering:geometricPrecision; text-rendering:geometricPrecision; image-rendering:optimizeQuality; fill-rule:evenodd; clip-rule:evenodd"
viewBox="0 0 383 383"
 xmlns:xlink="http://www.w3.org/1999/xlink">
 <defs>
  <style type="text/css">
   <![CDATA[
    .fil0 {fill:black}
   ]]>
  </style>
 </defs>
 <g id="Warstwa_x0020_1">
  <metadata id="CorelCorpID_0Corel-Layer"/>
  <g id="_2809935476864">
   <path class="fil0" d="M191 173c-18,0 -38,-8 -50,-21 -13,-13 -21,-32 -21,-50 0,-3 0,-5 0,-8 2,-16 10,-32 21,-43 12,-13 32,-21 50,-21 3,0 5,0 9,1 10,1 24,6 32,12l10 8c2,2 2,3 4,5 11,12 17,30 17,46 0,2 0,5 -1,8 0,2 -1,6 -1,8 -4,18 -14,32 -29,42 -10,8 -27,13 -41,13zm-101 -76c0,22 2,36 13,55 3,6 7,11 12,17 5,7 13,12 15,14 -4,1 -8,3 -13,5 -10,4 -25,12 -34,18 -7,5 -13,10 -20,16 -2,1 -3,2 -4,4 -6,4 -8,8 -14,13 -16,18 -30,45 -38,67 -9,22 -12,45 6,64 8,7 18,13 30,13l187 0c14,0 19,-18 9,-27 -4,-3 -7,-3 -14,-3l-168 0c-13,0 -21,0 -25,-9 -4,-7 0,-20 3,-27 10,-25 12,-32 30,-54 3,-4 5,-6 8,-9l18 -16c9,-7 10,-7 20,-13 45,-27 100,-28 147,-7 5,2 6,3 11,3 14,0 23,-22 3,-31 -6,-2 -13,-5 -19,-7 1,-2 5,-5 7,-6 19,-17 33,-46 33,-72 0,-18 -2,-32 -10,-47 -2,-5 -5,-10 -8,-15 -9,-12 -13,-15 -25,-24 -13,-10 -36,-19 -54,-19 -19,0 -32,2 -48,10 -23,11 -37,25 -49,48 -4,9 -9,26 -9,39z"/>
   <path class="fil0" d="M297 255l0 42 -42 0c-19,0 -19,30 0,30l42 0 0 42c0,18 30,18 30,0l0 -42 42 0c18,0 18,-30 0,-30l-42 0 0 -42c0,-19 -30,-19 -30,0z"/>
  </g>
 </g>
</svg>
