<?xml version="1.0" encoding="UTF-8"?>
<!DOCTYPE svg PUBLIC "-//W3C//DTD SVG 1.1//EN" "http://www.w3.org/Graphics/SVG/1.1/DTD/svg11.dtd">
<!-- Creator: CorelDRAW X7 -->
<svg xmlns="http://www.w3.org/2000/svg" xml:space="preserve" width="30mm" height="30mm" version="1.1" style="shape-rendering:geometricPrecision; text-rendering:geometricPrecision; image-rendering:optimizeQuality; fill-rule:evenodd; clip-rule:evenodd"
viewBox="0 0 12534 12534"
 xmlns:xlink="http://www.w3.org/1999/xlink">
 <defs>
  <style type="text/css">
   <![CDATA[
    .fil0 {fill:black}
   ]]>
  </style>
 </defs>
 <g id="Warstwa_x0020_1">
  <metadata id="CorelCorpID_0Corel-Layer"/>
  <g id="_2220280347376">
   <path class="fil0" d="M490 11702l0 -8617 11554 0 0 8617c0,214 -128,342 -342,342l-10870 0c-214,0 -342,-128 -342,-342zm-490 -10992l0 11114c0,340 370,710 710,710l11114 0c340,0 710,-370 710,-710l0 -11114c0,-183 -128,-388 -225,-485 -97,-97 -302,-225 -485,-225l-7760 0c-248,0 -387,494 97,491l7125 -1c395,0 758,-62 758,342l0 1738 -11554 0 0 -1738c0,-404 363,-342 759,-342 572,0 881,84 881,-270 0,-121 -100,-220 -221,-220l-1199 0c-340,0 -710,370 -710,710z"/>
   <path class="fil0" d="M6267 5973l3550 1322 -7100 0 3550 -1322zm759 -293l3990 -1469 0 2986 -3730 -1386c-98,-35 -153,-74 -260,-83l0 -48zm-5508 1517l0 -2986c66,15 158,54 234,84l3756 1433c-63,6 -3752,1355 -3990,1469zm1224 -3084l7050 0 -3525 1311c-78,0 -724,-266 -872,-317 -795,-276 -1627,-610 -2430,-899l-223 -95zm-1714 -294l0 3795c0,87 142,195 245,195l9988 0c132,0 245,-111 245,-244l0 -3746c0,-132 -121,-220 -245,-220l-9988 0c-124,0 -245,88 -245,220z"/>
   <path class="fil0" d="M7320 9376l0 1640 -1714 0c74,-110 1276,-1238 1475,-1438 64,-65 168,-155 239,-202zm-2106 1273l0 -1616 1714 0 -1487 1426c-71,71 -124,163 -227,190zm-514 -1811l0 2350c0,161 86,318 245,318l2644 0c181,0 245,-157 245,-343l0 -2325c0,-162 -86,-319 -245,-319l-2644 0c-159,0 -245,157 -245,319z"/>
   <path class="fil0" d="M11016 9352l0 1664 -1738 0 1738 -1664zm-2105 1297l0 -1616 1689 0c-120,180 -464,452 -618,606l-1071 1010zm-514 -1885l0 2497c0,123 122,245 245,245l2644 0c121,0 220,-99 220,-220l0 -2546c0,-132 -121,-221 -245,-221l-2619 0c-123,0 -245,122 -245,245z"/>
   <path class="fil0" d="M3623 9376l0 1640 -1714 0c101,-150 286,-290 423,-410 143,-126 277,-279 415,-416l876 -814zm-2105 1298l0 -1641 1713 0 -1713 1641zm-490 -1934l0 2546c0,121 100,220 221,220l2643 0c134,0 245,-113 245,-245l0 -2448c0,-158 -91,-294 -245,-294l-2595 0c-152,0 -269,70 -269,221z"/>
   <path class="fil0" d="M1469 1542c0,153 136,245 294,245l3598 0c395,0 394,-514 -24,-514l-3599 0c-144,0 -269,117 -269,269z"/>
   <path class="fil0" d="M9474 1787c235,0 346,-249 215,-411 -149,-183 -421,-95 -451,126 -18,137 109,285 236,285z"/>
   <path class="fil0" d="M10796 1787c235,0 346,-249 215,-411 -149,-183 -421,-95 -451,126 -18,137 109,285 236,285z"/>
   <path class="fil0" d="M8152 1787c244,0 352,-278 203,-424 -266,-260 -558,112 -380,332 27,33 127,92 177,92z"/>
   <path class="fil0" d="M2742 220c0,366 489,366 489,0 0,-136 -103,-209 -215,-220l-59 0c-112,11 -215,84 -215,220z"/>
  </g>
 </g>
</svg>
