<?xml version="1.0" encoding="UTF-8"?>
<!DOCTYPE svg PUBLIC "-//W3C//DTD SVG 1.1//EN" "http://www.w3.org/Graphics/SVG/1.1/DTD/svg11.dtd">
<!-- Creator: CorelDRAW X7 -->
<svg xmlns="http://www.w3.org/2000/svg" xml:space="preserve" width="26.6699mm" height="32.8559mm" version="1.1" style="shape-rendering:geometricPrecision; text-rendering:geometricPrecision; image-rendering:optimizeQuality; fill-rule:evenodd; clip-rule:evenodd"
viewBox="0 0 351 433"
 xmlns:xlink="http://www.w3.org/1999/xlink">
 <defs>
  <style type="text/css">
   <![CDATA[
    .str1 {stroke:#5065AC;stroke-width:1.31669}
    .str0 {stroke:#5065AC;stroke-width:1.00332}
    .fil25 {fill:none}
    .fil24 {fill:#2B2A29}
    .fil26 {fill:#2B2A29}
    .fil30 {fill:#F8CFD4}
    .fil22 {fill:#F0F2F3}
    .fil28 {fill:#C4DBE7}
    .fil27 {fill:#B7DBEC}
    .fil23 {fill:#7C9CC9}
    .fil17 {fill:#0B66F3}
    .fil15 {fill:#2076FF}
    .fil29 {fill:#26120B}
    .fil12 {fill:#3171F7}
    .fil20 {fill:#3272F6}
    .fil18 {fill:#3473F9}
    .fil19 {fill:#3685FF}
    .fil10 {fill:#3B7AFD}
    .fil11 {fill:#3F7CFF}
    .fil13 {fill:#407DFD}
    .fil16 {fill:#4A85FF}
    .fil14 {fill:#4D87FD}
    .fil21 {fill:#839DEA}
    .fil4 {fill:#C5786D}
    .fil0 {fill:#D4968B}
    .fil9 {fill:#E3B4AB}
    .fil7 {fill:#E58E98}
    .fil3 {fill:#E7C304}
    .fil6 {fill:#F3B3B9}
    .fil1 {fill:#F3D3CE}
    .fil2 {fill:#F5D21A}
    .fil8 {fill:#FBE5E2}
    .fil5 {fill:#FEE036}
   ]]>
  </style>
    <mask id="id0">
  <linearGradient id="id1" gradientUnits="userSpaceOnUse" x1="129.387" y1="222.777" x2="130.409" y2="175.294">
   <stop offset="0" style="stop-opacity:0; stop-color:white"/>
   <stop offset="1" style="stop-opacity:1; stop-color:white"/>
  </linearGradient>
     <rect style="fill:url(#id1)" x="83" y="171" width="93.8394" height="55.9081"/>
    </mask>
    <mask id="id2">
  <linearGradient id="id3" gradientUnits="userSpaceOnUse" x1="237.785" y1="232.881" x2="239.439" y2="181.311">
   <stop offset="0" style="stop-opacity:0; stop-color:white"/>
   <stop offset="1" style="stop-opacity:1; stop-color:white"/>
  </linearGradient>
     <rect style="fill:url(#id3)" x="193" y="180" width="91.9684" height="53.5407"/>
    </mask>
 </defs>
 <g id="Warstwa_x0020_1">
  <metadata id="CorelCorpID_0Corel-Layer"/>
  <g id="_2588546933552">
   <path class="fil0" d="M81 235l3 8c-2,1 0,0 -1,2 4,4 3,8 10,20 8,12 36,46 39,52 9,10 2,4 16,13 11,6 7,7 21,4 11,-3 13,1 23,3 4,1 7,-1 15,-5l5 -3c-9,2 -16,7 -24,4 -31,-10 -12,13 -47,-14 -6,-5 -35,-47 -41,-55 -6,-9 -11,-30 -14,-43 0,-1 0,-2 0,-3 0,-4 -1,-2 1,-3l-3 -20 -6 -10 0 15 -7 -24c-4,8 -7,18 -6,27l6 -18c1,13 3,6 -1,14 -1,5 -2,11 -1,16l8 13 0 -23c2,4 0,10 1,16 1,4 3,9 3,14z"/>
   <path class="fil1" d="M215 292c-3,4 -7,7 -11,11 -5,6 -8,4 -18,5 -18,1 -12,2 -25,-6l-6 -4c0,0 0,0 -1,0l-5 -4c6,-3 12,-8 18,-10 8,-5 9,6 19,0 8,-5 13,-1 22,2 6,2 6,2 11,0 5,-3 4,-2 4,-8l4 5c-4,3 -8,7 -12,9zm-57 -32c0,-3 0,-7 1,-10 0,0 2,-2 2,-3 2,-2 1,-1 3,-2 -4,7 -4,3 -4,14l8 2 -4 -4c0,0 -1,0 -1,0 0,-1 0,-1 -1,-1 15,2 8,14 20,13 8,-1 9,-15 17,-10 -3,2 -3,0 -5,3l7 -2c1,-10 0,-8 -4,-15 2,1 1,0 2,2l4 5c2,2 1,7 1,10 -8,2 -11,1 -15,4 -4,5 -3,7 -13,5 -4,-3 1,-8 -18,-11zm25 -4c-4,-3 -6,-8 -9,-12 6,0 16,-1 20,3l4 6 -11 -1 -4 4zm105 -25c1,-6 1,-19 2,-23 2,-4 6,-16 9,-19 1,5 2,10 3,14 1,9 -1,8 -2,14 0,-6 0,-12 -2,-17 -4,5 -2,7 -1,12 0,4 0,10 0,15 -3,1 -5,3 -9,4zm0 -34l0 0c0,2 0,2 -1,4 -1,1 -2,2 -3,2 -2,8 -3,26 -14,29 -12,4 -47,2 -59,-2 -9,-3 -7,-3 -11,-11 -2,-5 -5,-9 -7,-15 -4,-16 -13,-17 -19,-3 -2,5 -3,8 -6,12 -7,10 -5,14 -22,15 -9,1 -27,-1 -37,-1 -13,-1 -15,-5 -22,-12 -2,1 -1,-1 -1,3 0,1 0,2 0,3 3,13 8,34 14,43 6,8 35,50 41,55 35,27 16,4 47,14 8,3 15,-2 24,-4 6,-3 4,-4 9,-6l8 -9c3,-4 8,-9 13,-13l26 -29c4,-6 6,-11 9,-18 2,-2 4,-7 4,-8l1 10 12 -1c0,-10 0,-12 3,-21 2,-6 5,-11 7,-17 4,-10 4,-6 1,-18 -1,-5 -4,-16 -4,-22 -3,5 -7,12 -11,16 -3,1 -1,2 -2,4z"/>
   <path class="fil1" d="M80 171l26 -1c3,-3 7,-9 10,-14 39,1 15,0 49,7l-2 5c-6,3 -2,4 -13,1 -5,-1 -6,-2 -11,-3 -27,-8 -23,-3 -33,4 15,3 40,3 54,6 22,6 28,6 51,3 -1,0 0,-1 0,-1 0,0 0,-3 -2,-2l-2 -3 -1 -8c7,-1 15,-3 22,-4 8,-1 19,1 27,1 3,6 2,11 4,16l31 4c2,-18 5,-16 -1,-31 -5,-10 -5,-14 -15,-23 -26,-21 -12,-17 -51,-26 -15,-3 -23,3 -31,2 -9,0 -21,-6 -32,-2 -2,1 -16,19 -16,20 -5,7 16,-29 16,-20 -15,-41 -23,11 -17,-3 -13,2 -20,9 -28,16 -18,15 -16,9 -31,31 -6,10 -4,10 -4,25z"/>
   <path class="fil2" d="M112 374c13,12 11,16 29,28 6,5 10,8 17,12 5,4 14,8 18,12 -14,-1 -31,-13 -42,-19 -21,-13 -16,-19 -31,-31 1,-5 2,-8 3,-12 1,-6 1,-7 5,-10 3,4 1,15 1,20zm137 -24c2,5 3,11 3,17 0,11 -3,14 -9,19 -7,5 -25,23 -30,26 -5,3 -14,8 -19,10l56 -48 -1 -24zm-45 56c10,-8 17,-15 25,-24 8,-7 6,-7 9,-19 4,-18 2,-8 -3,-20 3,1 5,2 7,4 4,2 3,1 4,6 0,4 1,14 1,18 -2,6 -37,35 -47,40l4 -5zm-84 27l107 0c8,-5 42,-9 57,-19 3,-2 8,-15 8,-15 1,-3 1,-1 -1,-3 -1,-1 -2,-2 -3,-2 -3,-2 -4,-3 -7,-5 -5,2 -13,9 -17,12 -16,13 -17,10 -40,17 -7,3 -12,7 -19,9 23,-17 18,-11 42,-20 6,-2 6,-3 9,-7 3,-5 16,-22 20,-25 -2,-12 -6,-17 -17,-26 -12,-9 -16,-11 -32,-12l-4 0c3,5 6,6 10,10 4,4 2,7 1,14 -1,7 -2,11 -5,15l-10 11c-1,3 -10,11 -13,14 -3,2 -3,2 -6,4 -3,3 -6,6 -10,9 -3,3 -6,7 -9,11 -5,-2 -9,-5 -14,-8 -6,-4 -7,-5 -12,-9l-22 -21c-9,-8 -12,-14 -17,-16 0,-16 0,-23 15,-29l0 -5 -3 0c-5,8 -26,12 -30,20 0,5 -1,26 0,30 1,2 26,27 33,29 5,1 20,6 24,6 -7,0 -17,-2 -25,-3 -10,-2 -14,-7 -19,-12 -8,-9 -23,-17 -27,-32 0,0 -1,1 -1,1 0,1 0,1 0,1l-2 8c-3,13 -3,9 10,26 4,5 7,9 11,14 5,6 11,5 18,8z"/>
   <path class="fil1" d="M143 350l-1 18 -10 7 1 12 22 21c5,4 6,5 12,9 5,3 9,6 14,8 3,-4 6,-8 9,-11 4,-3 7,-6 10,-9 3,-2 3,-2 6,-4 3,-3 12,-11 13,-14 1,-9 3,-17 3,-26 0,-8 -1,-17 -1,-25l0 -7c-7,7 -8,10 -15,15 -28,19 -25,3 -42,6 -23,5 -7,4 -21,0z"/>
   <path class="fil3" d="M34 433c2,-2 22,-7 26,-8 8,-2 7,-1 14,2 4,2 8,3 11,6l35 0c-7,-3 -13,-2 -18,-8 -4,-5 -7,-9 -11,-14 -13,-17 -13,-13 -10,-26l2 -8c0,0 0,0 0,-1 0,0 1,-1 1,-1 4,15 19,23 27,32 5,5 9,10 19,12 8,1 18,3 25,3 -4,0 -19,-5 -24,-6 -7,-2 -32,-27 -33,-29 -1,-4 0,-25 0,-30 4,-8 25,-12 30,-20 -8,0 -17,0 -23,4 -5,4 -12,8 -17,12 -6,5 -9,7 -11,16 -7,23 -2,16 -15,26 -6,4 -2,5 -7,8l-20 7c-35,12 -15,9 -28,15 -9,4 -3,0 -7,8l34 0z"/>
   <path class="fil1" d="M163 213c5,-4 10,-20 8,-27 -4,-7 -53,-10 -65,-11 -11,-1 -12,0 -19,4l2 27c1,8 4,12 11,15 9,2 39,4 48,2 10,-2 11,-2 15,-10z"/>
   <path class="fil4" d="M131 337l0 5 0 6c0,-7 -1,-1 2,-4l10 6c14,4 -2,5 21,0 17,-3 14,13 42,-6 7,-5 8,-8 15,-15l0 -6c-5,2 -3,3 -9,6l-5 3c-8,4 -11,6 -15,5 -10,-2 -12,-6 -23,-3 -14,3 -10,2 -21,-4 -14,-9 -7,-3 -16,-13 0,7 -3,11 -1,20z"/>
   <path class="fil2" d="M246 433l84 0 1 -9c-4,-2 -34,-12 -38,-15 6,-4 0,-5 21,3 21,7 27,4 22,21l15 0c0,-10 -5,-6 -10,-11 -7,-6 -4,-5 -14,-8 -6,-2 -9,-3 -15,-5 -4,-2 -13,-6 -17,-5 -4,0 -5,8 -7,11 -3,4 -9,5 -13,7 -19,9 -23,7 -29,11z"/>
   <path class="fil1" d="M202 214c1,1 4,7 5,9 6,6 29,6 36,7 16,1 26,2 32,-8 2,-3 2,-8 3,-11l3 -20c-7,-9 -11,-8 -25,-8 -10,0 -21,-1 -31,-1 -6,0 -25,3 -27,6 -4,5 1,21 4,26z"/>
   <path class="fil5" d="M112 374c0,-5 2,-16 -1,-20 -4,3 -4,4 -5,10 -1,4 -2,7 -3,12 15,12 10,18 31,31 11,6 28,18 42,19 -4,-4 -13,-8 -18,-12 -7,-4 -11,-7 -17,-12 -18,-12 -16,-16 -29,-28z"/>
   <path class="fil6" d="M154 298c1,0 1,0 1,0l6 4c13,8 7,7 25,6 10,-1 13,1 18,-5 4,-4 8,-7 11,-11 -10,1 -22,0 -32,0 -10,0 -19,5 -29,6z"/>
   <path class="fil1" d="M69 244l11 1 1 -10c0,-5 -2,-10 -3,-14 -1,-6 1,-12 -1,-16l0 16 -8 -6c-1,-5 0,-11 1,-16 4,-8 2,-1 1,-14l-6 18c-1,-9 2,-19 6,-27l7 24 0 -17 -9 -19c0,7 -8,25 -9,31 -1,3 0,5 2,9 13,38 5,27 6,38 1,3 0,1 1,2z"/>
   <path class="fil7" d="M154 298c10,-1 19,-6 29,-6 10,0 22,1 32,0 4,-2 8,-6 12,-9l-4 -5c0,6 1,5 -4,8 -5,2 -5,2 -11,0 -9,-3 -14,-7 -22,-2 -10,6 -11,-5 -19,0 -6,2 -12,7 -18,10l5 4z"/>
   <path class="fil3" d="M281 389c-1,-3 -3,-12 -5,-14 -4,3 -17,20 -20,25 -3,4 -3,5 -9,7 -24,9 -19,3 -42,20 7,-2 12,-6 19,-9 23,-7 24,-4 40,-17 4,-3 12,-10 17,-12z"/>
   <path class="fil3" d="M133 387l-1 -12 -1 -27 0 -6c-15,6 -15,13 -15,29 5,2 8,8 17,16z"/>
   <path class="fil3" d="M219 387l10 -11c3,-4 4,-8 5,-15 1,-7 3,-10 -1,-14 -4,-4 -7,-5 -10,-10l-2 -1c0,8 1,17 1,25 0,9 -2,17 -3,26z"/>
   <path class="fil5" d="M200 411c10,-5 45,-34 47,-40 0,-4 -1,-14 -1,-18 -1,-5 0,-4 -4,-6 -2,-2 -4,-3 -7,-4 5,12 7,2 3,20 -3,12 -1,12 -9,19 -8,9 -15,16 -25,24l-4 5z"/>
   <path class="fil3" d="M213 412c5,-3 23,-21 30,-26 6,-5 9,-8 9,-19 0,-6 -1,-12 -3,-17l1 24 -56 48c5,-2 14,-7 19,-10z"/>
   <path class="fil5" d="M330 433l6 0c5,-17 -1,-14 -22,-21 -21,-8 -15,-7 -21,-3 4,3 34,13 38,15l-1 9z"/>
   <path class="fil3" d="M227 433l19 0c6,-4 10,-2 29,-11 4,-2 10,-3 13,-7 2,-3 3,-11 7,-11 -2,-7 0,-3 -3,-5 0,0 -5,13 -8,15 -15,10 -49,14 -57,19z"/>
   <path class="fil0" d="M131 348l1 27 10 -7 1 -18 -10 -6c-3,3 -2,-3 -2,4z"/>
   <path class="fil0" d="M286 237c4,-1 8,-9 11,-10 0,-5 0,-11 0,-15 -1,-5 -3,-7 1,-12 2,5 2,11 2,17 1,-6 3,-5 2,-14 -1,-4 -2,-9 -3,-14 -3,3 -7,15 -9,19 -1,4 -3,22 -4,29z"/>
   <path class="fil2" d="M34 433l51 0c-3,-3 -7,-4 -11,-6 -7,-3 -6,-4 -14,-2 -4,1 -24,6 -26,8z"/>
   <path class="fil0" d="M158 260c19,3 14,8 18,11 10,2 9,0 13,-5 4,-3 7,-2 15,-4 0,-3 1,-8 -1,-10l-4 -5c-1,-2 0,-1 -2,-2 4,7 5,5 4,15l-7 2c2,-3 2,-1 5,-3 -8,-5 -9,9 -17,10 -12,1 -5,-11 -20,-13 1,0 1,0 1,1 0,0 1,0 1,0l4 4 -8 -2c0,-11 0,-7 4,-14 -2,1 -1,0 -3,2 0,1 -2,3 -2,3 -1,3 -1,7 -1,10z"/>
   <path class="fil1" d="M211 179l50 -1 -10 -10c-6,1 -14,3 -20,4l-20 5c-1,-1 0,2 0,2z"/>
   <path class="fil8" d="M183 256l4 -4 11 1 -4 -6c-4,-4 -14,-3 -20,-3 3,4 5,9 9,12z"/>
   <path class="fil0" d="M169 242c10,0 6,-1 11,-3l-8 0c0,-6 3,-9 3,-14 -1,-7 -2,-11 -2,-19 0,1 -2,-1 -2,8 2,29 -1,12 -2,28z"/>
   <path class="fil9" d="M277 254c2,3 3,4 4,7l13 -6 -12 1 -1 -10c0,1 -2,6 -4,8z"/>
   <path class="fil9" d="M69 244c3,3 2,1 6,4 2,1 3,2 5,3l3 -6c1,-2 -1,-1 1,-2l-3 -8 -1 10 -11 -1z"/>
   <path class="fil10" d="M284 203c1,0 2,-1 3,-2 1,-2 1,-2 2,-4l-4 1 -1 5z"/>
   <path class="fil11" d="M192 98c9,-4 21,-12 33,-12 15,-1 32,-2 46,-2 -22,12 -55,14 -79,14zm109 -27c2,-2 14,-5 16,-4 3,0 7,7 10,10 5,7 11,8 -1,26l3 -16 -22 -11c-2,1 -7,6 -8,8l2 -13zm-105 1c2,-2 9,-7 11,-9 4,-2 11,-2 17,-3 14,-1 18,-2 30,4 -52,2 -36,5 -58,8zm-62 -11c9,-1 20,-7 31,-4 12,4 17,4 24,13 -9,-2 -18,-6 -26,-7 -9,-2 -20,-1 -29,-2zm-78 -17c-1,8 -5,19 -6,27 -1,6 6,18 8,24 7,1 13,3 15,-6 -1,11 -6,22 -13,30 -3,3 -2,0 -3,4 5,0 4,1 9,1 4,-8 10,-17 15,-25 4,-7 4,-7 11,-11 5,-2 9,-5 14,-7 -2,1 -4,3 -6,5 5,21 14,24 21,30 4,-1 5,-4 9,-6 3,-2 9,-3 13,-4 3,-3 3,-1 9,-11l24 -1c3,2 9,10 11,13l-1 -1 -2 1c8,8 20,-5 32,-2 9,2 29,6 35,9 5,-5 8,-1 21,-10 14,-11 12,-8 15,-17 -4,-1 -2,-2 -6,-4l3 -29c8,-1 23,-7 29,-4 10,4 14,7 16,19 -7,-6 -3,-8 -12,-11 -9,-3 -7,-5 -16,-1 -13,5 -11,2 -12,9 -2,7 -4,13 0,17l4 -9c-1,16 -9,13 2,27 9,14 8,8 24,13l-9 5c1,8 1,9 9,11 8,2 9,-1 15,-4 9,-6 6,-4 12,-18 1,-4 1,-6 4,-6 0,-7 -7,-16 -10,-22 -2,-3 -3,-6 -5,-10 -3,-5 -3,-6 -5,-10 -2,-3 -12,-11 -14,-12 -11,-4 -21,0 -30,5 -6,2 -4,2 -8,15l-3 6 0 -29c8,-2 30,-8 37,-6 3,1 9,5 9,3 -2,-3 -8,-7 -11,-10 -5,-4 -5,-7 -15,-7 -8,0 -13,-1 -21,-1 -9,0 -13,-2 -20,-2l-10 20 21 24c-5,-2 -12,-7 -17,-10 -8,-6 -10,-6 -21,-8 -10,-2 -24,-3 -33,-1 -7,1 -15,-4 -34,-4 -6,4 -24,11 -26,18 -4,1 -11,6 -13,9 23,-1 3,-6 39,1 11,3 14,0 24,20 -3,-2 -3,-2 -8,-5 -23,-12 -25,-14 -53,-15 -9,-1 -2,6 -22,3 -3,5 -6,8 -9,12 -6,-1 -24,-3 -29,-6l-1 -25 4 22 24 3c2,-3 1,-3 4,-6 -7,-6 -16,-11 -22,-17 1,-6 5,-17 8,-23 1,-6 8,-19 6,-22 -5,0 -8,2 -12,4 -6,3 -7,8 -13,18 -2,3 -4,7 -5,10z"/>
   <path class="fil12" d="M102 5c6,-2 30,7 42,9l-8 26c-5,0 -18,2 -22,5 5,0 14,3 18,6l-4 2c-4,3 -20,16 -23,12l-3 -1c-6,-2 -11,-3 -14,-8 -3,-7 -4,-7 -2,-15 3,-11 5,-23 9,-34 -3,1 -3,1 -5,2 -2,1 -1,0 -3,1 -1,1 0,1 -1,2 2,3 -5,16 -6,22 -3,6 -7,17 -8,23 6,6 15,11 22,17l7 0c20,3 13,-4 22,-3 28,1 30,3 53,15 5,3 5,3 8,5 -10,-20 -13,-17 -24,-20 -36,-7 -16,-2 -39,-1 2,-3 9,-8 13,-9 2,-7 20,-14 26,-18 -3,-2 0,-1 -4,-1 0,-5 2,-6 0,-11l-10 -15c-2,-3 -3,-5 -7,-7l-28 -9c-1,0 -3,0 -5,1 -5,3 -2,1 -4,4z"/>
   <path class="fil11" d="M95 7c-4,11 -6,23 -9,34 -2,8 -1,8 2,15 3,5 8,6 14,8 2,-8 8,-7 7,-17 0,-8 -2,-15 -1,-23l6 21c4,-3 17,-5 22,-5l8 -26c-12,-2 -36,-11 -42,-9 -3,-1 -1,-1 -4,0 0,0 -3,2 -3,2z"/>
   <path class="fil12" d="M289 83l-2 4c-3,9 -1,6 -15,17 -13,9 -16,5 -21,10l7 6c6,1 14,-5 17,-9l9 -14c1,-1 1,-1 1,-2 4,21 8,10 4,25 -7,21 -3,8 -11,20 0,4 2,9 4,11 3,-1 7,-10 9,-14 2,-6 2,-14 2,-21 1,1 1,0 2,2 11,14 6,20 5,32 -1,6 -2,12 -4,18 -6,10 -5,10 -10,12l2 1c0,0 1,1 1,1 0,-1 0,0 1,0l-2 14 4 -4c1,-1 2,-3 3,-5 2,-3 3,-6 6,-10 0,-4 0,-5 1,-9 1,-3 1,-6 1,-10 1,-6 2,-13 2,-20 6,0 14,0 19,-1 11,-3 15,-10 22,-18 4,-5 3,-10 4,-17 -3,0 -3,2 -4,6 -6,14 -3,12 -12,18 -6,3 -7,6 -15,4 -8,-2 -8,-3 -9,-11l9 -5c-16,-5 -15,1 -24,-13 -11,-14 -3,-11 -2,-27l-4 9z"/>
   <path class="fil12" d="M66 124c2,8 3,31 3,41 3,3 8,15 9,20l6 9c-1,-10 -3,-5 -4,-11 -1,-2 0,-10 -1,-13l6 0c0,-3 0,-10 1,-13 1,-4 3,-4 4,-8 -1,-7 -6,-7 -5,-16l4 -36c1,-5 5,-8 10,-10 0,28 2,21 12,32l3 3c1,-1 3,-1 4,-2 0,-1 1,-2 2,-2 1,-1 0,-1 1,-2 -7,-6 -16,-9 -21,-30 2,-2 4,-4 6,-5 -5,2 -9,5 -14,7 -7,4 -7,4 -11,11 -5,8 -11,17 -15,25z"/>
   <path class="fil11" d="M33 107c9,5 2,9 26,7l9 -16 -10 1c-14,-16 -14,-18 -15,-33 0,-6 2,-7 2,-11l-1 -2c-3,4 -6,5 -8,11l-7 30c-1,5 2,12 4,13z"/>
   <path class="fil13" d="M90 149c0,0 0,-1 0,-1 0,1 1,0 1,0l4 -6c12,-16 6,-8 19,-20l-3 -3c-10,-11 -12,-4 -12,-32 -5,2 -9,5 -10,10l-4 36c-1,9 4,9 5,16z"/>
   <path class="fil11" d="M258 120c2,5 6,7 10,10 4,4 6,7 10,10 8,-12 4,1 11,-20 4,-15 0,-4 -4,-25 0,1 0,1 -1,2l-9 14c-3,4 -11,10 -17,9z"/>
   <path class="fil12" d="M44 53l1 2c0,4 -2,5 -2,11 1,15 1,17 15,33l10 -1 -9 16c-24,2 -17,-2 -26,-7 2,6 4,9 7,14 8,0 11,2 17,2 1,-4 0,-1 3,-4 7,-8 12,-19 13,-30 -2,9 -8,7 -15,6 -2,-6 -9,-18 -8,-24 1,-8 5,-19 6,-27 -4,2 -8,6 -12,9z"/>
   <path class="fil11" d="M282 151c4,15 7,10 4,29 5,-2 4,-2 10,-12 2,-6 3,-12 4,-18 1,-12 6,-18 -5,-32 -1,-2 -1,-1 -2,-2 0,7 0,15 -2,21 -2,4 -6,13 -9,14z"/>
   <path class="fil12" d="M227 48c11,2 13,2 21,8 5,3 12,8 17,10l-21 -24 10 -20c-2,-2 -8,-3 -11,-3 -1,3 -8,11 -11,14 -8,8 -5,2 -5,15z"/>
   <path class="fil12" d="M192 98c24,0 57,-2 79,-14 -14,0 -31,1 -46,2 -12,0 -24,8 -33,12z"/>
   <path class="fil12" d="M330 60c-1,-5 -2,-7 -3,-11 -1,-2 -1,-3 -2,-4 -2,-4 0,-2 -4,-3 0,2 -6,-2 -9,-3 -7,-2 -29,4 -37,6l0 29 3 -6c4,-13 2,-13 8,-15 9,-5 19,-9 30,-5 2,1 12,9 14,12z"/>
   <path class="fil14" d="M143 106c-1,10 -11,9 -6,22 2,8 4,17 7,24 1,-8 -2,-20 -2,-25 0,-6 1,-1 2,-6 2,-4 1,-3 5,-5l7 -7c2,-4 1,1 3,-4 1,-1 1,-11 17,-5 3,1 6,5 10,6l1 1c-2,-3 -8,-11 -11,-13l-24 1c-6,10 -6,8 -9,11z"/>
   <path class="fil15" d="M107 168c4,-1 4,1 10,-7 1,0 6,1 7,1 3,0 4,-2 5,-2 5,4 14,8 21,9l-2 -6 12 10c3,-1 5,-2 7,-3l-2 -9c-34,-7 -10,-5 -49,-6 -3,5 -6,8 -9,13z"/>
   <path class="fil15" d="M219 162l-7 8 2 -7 -9 1 -2 7c2,3 1,1 3,2 1,-1 2,0 4,3 7,-4 6,-4 10,-9 2,3 2,0 0,6 18,-3 13,-3 24,-7 0,1 0,-1 0,1 0,2 -2,-1 0,1l11 -1 8 10c-2,-6 -6,-10 -8,-16 -14,0 -22,-2 -36,1z"/>
   <path class="fil16" d="M287 87l2 -4c-4,-4 -2,-10 0,-17 1,-7 -1,-4 12,-9 9,-4 7,-2 16,1 9,3 5,5 12,11 -2,-12 -6,-15 -16,-19 -6,-3 -21,3 -29,4l-3 29c4,2 2,3 6,4z"/>
   <path class="fil12" d="M301 71l-2 13c1,-2 6,-7 8,-8l22 11 -3 16c12,-18 6,-19 1,-26 -3,-3 -7,-10 -10,-10 -2,-1 -14,2 -16,4z"/>
   <path class="fil12" d="M196 72c22,-3 6,-6 58,-8 -12,-6 -16,-5 -30,-4 -6,1 -13,1 -17,3 -2,2 -9,7 -11,9z"/>
   <path class="fil16" d="M101 74l-7 0c-3,3 -2,3 -4,6l-24 -3 -4 -22 1 25c5,3 23,5 29,6 3,-4 6,-7 9,-12z"/>
   <path class="fil12" d="M134 61c9,1 20,0 29,2 8,1 17,5 26,7 -7,-9 -12,-9 -24,-13 -11,-3 -22,3 -31,4z"/>
   <path class="fil17" d="M206 173l3 4c0,0 0,1 0,0 0,0 1,1 1,1l3 0c1,0 1,-1 1,-1 0,1 1,0 1,0l36 -8 8 8 5 1 -1 -1 -8 -10 -11 1c-2,-2 0,1 0,-1 0,-2 0,0 0,-1 -11,4 -6,4 -24,7 2,-6 2,-3 0,-6 -4,5 -3,5 -10,9 -2,-3 -3,-4 -4,-3z"/>
   <path class="fil11" d="M105 65c3,4 19,-9 23,-12l4 -2c-4,-3 -13,-6 -18,-6 -1,7 2,8 -1,13 0,0 -3,5 -3,5 -4,4 0,3 -5,2z"/>
   <path class="fil17" d="M107 168l-2 1 7 1c9,-7 2,-9 23,-3 3,1 26,10 25,6l-12 -10 2 6c-7,-1 -16,-5 -21,-9 -1,0 -2,2 -5,2 -1,0 -6,-1 -7,-1 -6,8 -6,6 -10,7z"/>
   <path class="fil16" d="M102 64l3 1c5,1 1,2 5,-2 0,0 3,-5 3,-5 3,-5 0,-6 1,-13l-6 -21c-1,8 1,15 1,23 1,10 -5,9 -7,17z"/>
   <path class="fil18" d="M156 109c13,-12 15,-2 28,-2l2 -1c-4,-1 -7,-5 -10,-6 -16,-6 -16,4 -17,5 -2,5 -1,0 -3,4z"/>
   <polygon class="fil19" points="219,162 214,163 212,170 "/>
   <path class="fil20" d="M284 203c0,-1 1,-1 2,-3 2,-2 1,-2 2,-4l-3 1 -1 6z"/>
   <path class="fil21" d="M144 121c4,-2 3,-1 5,-5 -4,2 -3,1 -5,5z"/>
   <g>
    <path class="fil22" d="M164 210c-40,0 -60,-2 -59,-4 11,-10 16,-16 16,-16 21,1 31,2 31,2 8,12 12,18 12,18z"/>
    <path class="fil22" d="M264 215c-39,1 -59,-1 -59,-3 8,-10 11,-15 11,-15 21,0 31,0 31,0 12,12 17,18 17,18z"/>
    <path class="fil23 str0" d="M220 201c1,-3 2,-4 2,-4 15,0 22,1 22,1 1,4 2,7 2,7 -4,6 -6,9 -6,9 -3,0 -5,1 -5,1 -4,0 -6,0 -6,0 -4,-4 -7,-5 -7,-5 -1,-6 -2,-9 -2,-9z"/>
    <ellipse class="fil22" cx="232" cy="204" rx="7" ry="6"/>
    <g>
     <g>
      <g>
       <path class="fil24" d="M236 209c-3,-3 -3,-3 -5,-5 2,-2 1,-2 0,-6 3,-2 6,0 8,3 1,3 0,6 -3,8z"/>
      </g>
      <path class="fil25" d="M233 203c-1,1 -2,1 -2,1"/>
     </g>
     <g>
      <path class="fil24" d="M229 199c3,3 3,2 5,4 -2,2 -1,2 0,6 -3,1 -6,0 -8,-3 -1,-2 0,-6 3,-7z"/>
     </g>
     <path class="fil25" d="M231 204c2,-1 2,0 3,-1"/>
    </g>
    <path class="fil25 str1" d="M222 197c2,1 3,2 3,2"/>
    <path class="fil25 str1" d="M220 201c2,1 3,1 3,1"/>
    <path class="fil25 str1" d="M221 207c2,-1 3,-1 3,-1"/>
    <path class="fil25 str1" d="M224 211c1,-1 2,-2 2,-2"/>
    <path class="fil25 str1" d="M228 214c1,-2 1,-2 1,-2"/>
    <path class="fil25 str1" d="M235 215c-2,-2 -2,-3 -2,-3"/>
    <path class="fil25 str1" d="M239 214c-1,-2 -2,-3 -2,-3"/>
    <path class="fil25 str1" d="M243 210c-2,-1 -3,-2 -3,-2"/>
    <path class="fil25 str1" d="M245 206c-3,-1 -4,-1 -4,-1"/>
    <path class="fil25 str1" d="M245 201c-3,0 -4,0 -4,0"/>
    <path class="fil26" d="M218 197c-8,10 -13,15 -13,15 9,-11 13,-17 13,-16 21,0 32,0 32,0 14,16 19,19 19,19 -6,0 -9,0 -9,0 -9,-12 -13,-18 -13,-18 -19,0 -29,0 -29,0z"/>
    <path class="fil23 str0" d="M148 197c-1,-3 -2,-4 -2,-4 -12,-1 -19,-1 -19,-1 -2,4 -2,6 -2,6 2,6 4,9 4,9 3,1 5,2 5,2 3,0 5,0 5,0 4,-3 6,-4 6,-4 2,-5 3,-8 3,-8z"/>
    <circle class="fil22" transform="matrix(-0.834291 -0.0774084 -0.0793388 0.855097 136.708 198.571)" r="7"/>
    <g>
     <g>
      <g>
       <path class="fil24" d="M133 203c3,-3 3,-2 5,-4 -1,-2 -1,-3 1,-6 -3,-2 -6,-1 -8,2 -1,3 -1,6 2,8z"/>
      </g>
      <path class="fil25" d="M136 198c1,1 2,0 2,1"/>
     </g>
     <g>
      <path class="fil24" d="M140 194c-2,2 -2,2 -5,4 2,2 1,2 0,5 2,2 5,1 7,-1 1,-3 1,-6 -2,-8z"/>
     </g>
     <path class="fil25" d="M138 199c-2,-1 -2,-1 -3,-1"/>
    </g>
    <path class="fil25 str1" d="M146 193c-1,1 -2,2 -2,2"/>
    <path class="fil25 str1" d="M148 197c-2,1 -3,1 -3,1"/>
    <path class="fil25 str1" d="M146 202c-1,0 -2,-1 -2,-1"/>
    <path class="fil25 str1" d="M144 206c-1,-1 -2,-2 -2,-2"/>
    <path class="fil25 str1" d="M140 209c-1,-2 -1,-3 -1,-3"/>
    <path class="fil25 str1" d="M134 209c1,-2 1,-3 1,-3"/>
    <path class="fil25 str1" d="M130 208c1,-2 2,-3 2,-3"/>
    <path class="fil25 str1" d="M127 203c2,0 3,-1 3,-1"/>
    <path class="fil25 str1" d="M125 199c3,0 4,0 4,0"/>
    <path class="fil25 str1" d="M126 195c2,0 3,0 3,0"/>
    <path class="fil26" d="M152 193c8,11 12,16 12,16 -8,-12 -12,-18 -11,-17 -21,-2 -32,-2 -32,-2 -15,15 -21,17 -21,17 6,0 9,1 9,1 10,-11 15,-17 15,-17 18,2 28,2 28,2z"/>
   </g>
   <path class="fil27" style="mask:url(#id0)" d="M97 221c-10,-6 -10,-17 -11,-26 -2,-11 -2,-22 -1,-22 10,-1 15,-1 15,-1 51,3 75,9 75,10 -1,6 1,10 1,10 -4,6 -6,12 -8,17 -5,9 -10,13 -10,13 -10,7 -47,3 -61,-1z"/>
   <path class="fil28" style="mask:url(#id2)" d="M268 231c10,-6 11,-17 13,-25 2,-11 3,-22 2,-23 -10,-1 -15,-1 -15,-1 -49,-1 -73,2 -73,4 0,6 -1,9 -1,9 2,7 4,13 6,18 4,9 9,14 9,14 9,7 45,6 59,4z"/>
   <path class="fil29" d="M278 211c-1,3 -1,8 -3,11 -6,10 -16,9 -32,8 -7,-1 -30,-1 -36,-7 -1,-2 -4,-8 -5,-9 -3,-5 -8,-21 -4,-26 2,-3 21,-6 27,-6 10,0 21,1 31,1 14,0 18,-1 25,8l-3 20zm-115 2c-4,8 -5,8 -15,10 -9,2 -39,0 -48,-2 -7,-3 -10,-7 -11,-15l-2 -27c7,-4 8,-5 19,-4 12,1 61,4 65,11 2,7 -3,23 -8,27zm-79 -18l3 20c7,7 9,11 22,12 10,0 28,2 37,1 17,-1 15,-5 22,-15 3,-4 4,-7 6,-12 6,-14 15,-13 19,3 2,6 5,10 7,15 4,8 2,8 11,11 12,4 47,6 59,2 11,-3 12,-21 14,-29l1 -5 4 -1 -1 0 2 -15 -4 -1 -22 -3 -5 0 -46 0 -3 1c-23,3 -28,3 -50,-3 -14,-3 -33,-3 -48,-6l-6 0 -20 0 -6 1c0,3 0,11 0,14 2,5 3,-1 4,10z"/>
   <path class="fil30" d="M197 293c-11,1 -22,-1 -22,3 7,1 10,0 10,1 6,-1 12,-4 12,-4z"/>
  </g>
 </g>
</svg>
